<?xml version="1.0" encoding="utf-8"?>
<!-- Generator: Adobe Illustrator 28.2.0, SVG Export Plug-In . SVG Version: 6.00 Build 0)  -->
<svg version="1.1" id="Layer_1" xmlns="http://www.w3.org/2000/svg" xmlns:xlink="http://www.w3.org/1999/xlink" x="0px" y="0px"
	 viewBox="0 0 501 590" style="enable-background:new 0 0 501 590;" xml:space="preserve">
<style type="text/css">
	.st0{fill-rule:evenodd;clip-rule:evenodd;fill:#FFFFFF;}
	.st1{fill:#FFFFFF;}
</style>
<g>
	<g id="Layer_x0020_1">
		<g id="_2713592230800">
			<g>
				<g>
					<g>
						<path class="st0" d="M238.5,289v-1.3c5.6-2,9.6,1.7,9.3,5c-1.1,0.3-1.2,0.5-2.5,0.1c-2.5-0.8-1.8-0.5-3.7-1.7L238.5,289
							L238.5,289z M413.1,267.6c5.1-0.2,11.8,0.1,16.2,2.8c0.5,0.3,1,0.5,1.1,1.4c-4.5,1.9-3.8,1.8-7.3,3.9
							c-2.2,1.3-3.1-0.1-4.6-1.7c-0.8-0.8-1.4-1.2-2.1-1.8c-0.8-0.7-1.1-1.4-1.9-2C413.4,269.2,413.2,269.6,413.1,267.6z
							 M188.9,279.2c-1.7,0.2-2.1,1.2-2.5,2.8c-0.4,1.7-0.5,1-0.8,1.9s-0.1,1.3-0.5,2.2c-0.7,1.3-3.1,3-4.3,3.9l-5.2,3.2l-4.4,1.4
							c-2.8,0.4-4.6-0.3-6.9-1.2c-1.3-0.5-2.5-1.3-3.4-2.4l-1.8-2.1c-1.8-2.2-1.5-2.1-2.5-4.5c-0.9-2.1-0.4-0.2-1.4-4
							c-1.3-4.9-1.2-7.3-1.3-13c0-3.8-0.1-7.2-0.3-10.8c-0.8-10.6-0.6-21.9-0.6-32.6c0-2.8,0.1-4.9-0.3-7.8c-0.1-1-0.4-1.2-0.5-2.5
							c-0.3-3.9-0.1-12.2-0.8-15.7l-0.7-5.1c-0.1-5.9-0.4-4.1-0.6-7.5l-1-13.1c-2.5-1.8-2.3,0.2-3.2,1.8c-0.2,0.3-0.4,0.6-0.6,0.9
							l-0.4,0.5c-0.9,0.9-0.8,0.1-1.1,1.8c-0.4,1.8-1.2,2.8-2,4.2c-1,1.9-0.2,6.7,0.3,8.4c0.9,3.2,0.6,7.7,1,11.4
							c0.7,6.5,0.8,3.9,0.8,11.5c0.1,7.3,0.3,10.5,0.9,17.5c0.2,2-0.1,4.3,0.1,6.3c0.2,3.5,0.3,8,0.6,11.7c0.8,7.4,0.6,22,1.4,29.3
							c0.2,1.4,0.4,1.3,0.5,2.4l2,13.7c0.3,0.6,0.6,1,1,2l2.2,4.5c0.2,0.5,0,0.2,0.3,0.6l4,3.8c2.7,2.1,8.9,3.4,12.5,2.7
							c0.9-0.2,1.1-0.7,2.3-1c4-1,1.5,0,5.1-2.4c0.3-0.2,0.6-0.3,1-0.5c0.6-0.4,1.4-0.9,2-1.4c0.6-0.4,1.2-0.8,1.7-1.3
							c0.4-0.4,0.9-1,1.4-1.6c3.2-3.3,2.4-4.5,6.9-0.8c2.6,2.1,6.6,4.8,9.9,5.2c1.1,0.1,1.9,0.2,2.9,0.4c4.7,1.1,10.7,0.1,15.2-2.3
							c1.5-0.8,2.3-2,4.1-2c0.2,2.4-2.1,6.1-2.9,8.3c-1.9,4.6-4.2,14-4.4,19c-0.2,6.2,0.4,11.8,3.6,16.8c1,1.6,3,3.2,4.6,4.2
							c4.2,2.5,9.8,3.3,14.7,2.4c3.3-0.6,6.6-0.8,9.6-2.2c1.9-0.9,3.7-0.6,6.4-2.1c2.5-1.4,5.3-2.7,8.1-3.6l5.8-3.1
							c1.7-1.3,3.8-1.8,5.5-2.9L285,328c3.9-2.9,8.1-5.6,10-10.2l1.8-7c0.1-2.1,0.3-3.4,1.5-4.4c2.1,2.2,10.1,2.9,13.4,2l3.3-1.2
							c1.6-0.6,0.1-0.3,1.5-0.9c3.5-1.5,5.2-2.8,8.2-5.7c1.9,0.6,2.4,2.2,3.4,3.7c0.4,0.5,0.7,0.9,1.2,1.3c2.2,1.9,4.9,2.2,7.8,2.1
							c4.5-0.1,6.9-1.9,10.2-4.5c0.8-0.6,1.7-1.4,2.1-2.5c2.8-0.2,3.1,2,6.2,2.8c0.7,0.2,0.8,0.2,1.4,0.5c0,0,0.1,0.1,0.2,0.1
							c1.8,1.1,4.3,1,6.3,0.6c0.9-0.2,2.3-1,3.2-1.3c2-0.9,5.6-5.3,6.8-6.9c1,0.3,1.5,0.7,2.4,1.3l2.4,1.5c2.8,2.6,9.3,2.9,13.3,2.4
							c3.1-0.4,3.7-0.8,6.2-1.6c1.3-0.4,1.8-0.4,3-0.9l10.4-5.2c1.7-0.7,1.2-0.4,2.6-1.4c5.2-3.9,4.8-3.1,7.9,0
							c0.7,0.6,0.8,0.6,1.6,1.1c1.1,0.7,0.6,0.6,1.5,1.2c1,0.8,2.4,1,3.6,1.8c0,0,0.1,0.1,0.2,0.1l2.5,1.4c0.1,0,0.1,0.1,0.2,0.1
							c2.8,1.6,5.8,2.5,8.9,3.2c3.5,0.9,6,1,10.1,0.6c0.9-0.1,1.7,0,2.5-0.3c0.9-0.3,0.6-0.5,1.9-0.7c2.8-0.5,5-2.3,7.4-3.5l2.6-1.7
							c3-2.5,3.3-2.5,4.8-4.9c1.1-1.9,2-3.5,2.6-5.7c0.4-1.5,1.1-2.7,1.3-4.3c1-6.1,1.2-14.9,1.1-21.1c-0.1-3.3-0.6-6.8-0.9-10
							c-0.6-6.4-0.2-14.4-0.9-21.3c-0.1-1.6-0.5-2.9-0.5-4.8c0-1.9,0-3.8-0.2-5.6s-0.1-3.5-0.2-5.3c-0.1-1.4-0.4-3.4-0.5-4.9
							c-0.3-3.5-0.5-7.2-0.4-10.9c1.2,0.3,1,0.8,2.1,2.2c0.5,0.7,0.6,1.3,1.6,1.4c3,0.2-0.9-9.4-1.5-11.3c-0.3-1.1-0.4-0.7-0.7-1.7
							l-1-3.5c-0.9-1.8-1.4-3.6-1.8-5.5c-0.2-0.8-0.3-1-0.7-1.7c-0.7-1.5-1.1-3.7-2.5-4.7c-1.1,0.4-1.7,1.9-2.2,3.2l-2.8,5.7
							c-1.5,2.6-0.3,3.7-0.1,7.1c0.2,3.2,0.5,7.3,0.6,10.6c0,3.6,0.9,6.3,1,10.2c0.1,4-0.1,9.5,0.6,13.2c0.8,4,0.5,3.8,0.8,7.6
							c0.1,1.7,0.1,3.7,0.1,5.4c0,2.7-0.1,3.1,0.5,5.1c0.9,2.6,0.3,7.3,0.8,10.4c0.8,5.5,0.6,12.5,1.5,17.8c0.1,0.9,0.4,1.2,0.5,2.5
							c0.1,1.9,0.6,9.5,0.3,10.8c-0.3,1.3-1.7,2-2.9,2.7c-1.1,0.7-0.5,0.5-1.5,1.2c-0.8,0.5-1.2,0.8-2,1l-5.6,2.5
							c-0.7,0.2-1.6,0.4-2.4,0.6c-9.6,2.7-24.4-5.9-24.1-8c0.2-1.1,11.1-4.6,13.1-4.8l2.2-0.2c1-0.2,0.4-0.1,0.7-0.6l0.9-1.8
							c0.3-0.6,1-1.9,1.2-2.6c0.4-1,0.4-2.1,0.8-3.3c0.7-2.4,2.3-2.8-2.7-5l-22.3-7.6c-2.5-0.5-4.8-0.6-7.5-0.6
							c-5.2,0-9.8,0.4-14.3,2c-1.1,0.4-3,1-4,1.5c-2.4,1.2-4.6,2.3-5.7,5.1c-0.7,1.8-1.6,6.9-1.5,9.2c2.1,1.9,2.8,0,5.2-0.7
							c3.5-1,9,1.4,10.7,4.7c1.1,2,0.6-0.1,2.7,3.3l0.9,1c0,0,0.1,0.1,0.2,0.2c-0.1,0.1-0.2,0-0.2,0.2c0,0.1-0.1,0.1-0.2,0.2
							l-3.5,2.6c-0.4,0.2-0.5,0.3-1,0.5l-3.6,1.9c-1.1,0.4-1.1,0.7-2.2,1.1c-1,0.3-1.8,0.2-2.6,0.7c-4.4,2.2-12.4,1.8-16.6-1.2
							c-0.7-0.5-1.3-0.9-1.9-1.5c-3.1-3.3-0.6-5.8-4-6.5c-1.4,2.1-2.2,5.5-3.6,7.6c-1.4,2-3.6,4.3-6.1,5.2c-2.6,1-6.4,1.7-9-0.2
							c-4.3-3.2-2.2-7.3-3.4-8l-1,0.1c-1.8,0.8-4.2,9.4-10.7,11.5c-3.1,1-6.8,0.1-9.1-2c-1-0.9-1.8-2.3-2.4-3.5
							c-0.3-0.7-0.4-1.5-0.4-2.5l-0.2-2.9c-0.2-0.1-0.2-0.2-0.8-0.1c-0.7,0.1-0.1-0.2-0.8,0.4c-1.3,1-4.1,5.7-7.3,7.8
							c-4.8,3.2-8.9,5.4-15.6,2.8l-2.2-1.1c-1.7-0.6-3.4-2.5-4.2-4c-0.7-1.2,0-0.4-1.1-1.1c-1.3-0.9-2.3-3.1-2.7-4.4
							c-0.4-1.3-0.1-0.3-0.9-1.4c-1.5-2.1-0.9-5.2-3.5-5.1c-0.8,1.1-0.9,3.1-1.5,4.4c-0.8,1.8-0.6,2.9-1.3,4.8
							c-1,2.6,0.1,2.9,0.5,4.9l0.8,2.3c0.5,0.8,0.6,1.3,1,2c0.8,1.6,0.9,3.1,1.6,4.4c1.1,2,0.6,2.7,1.1,4.9c0.4,1.8,0.9,4.5-0.6,6
							l-1.9,1.7c-0.1,0.1-0.4,0.4-0.5,0.4l-10.7,7.4c-2.9,2-6.4,4.1-9.7,5.4c-1.9,0.8-6.3,3.9-9.8,5.2c-2.9,1.1-5.5,2.7-8.6,3.4
							c-1,0.2-1.7,0.2-2.6,0.5c-0.8,0.3-1.2,0.6-2.2,0.8l-4.7,1.2c-6,1-14.7,0.3-18-5.4c-0.9-1.6-1.5-2.3-1.8-4.2
							c-0.8-5.1-1.5-4.6-0.6-10.8c0.4-2.9,0.7-4.5,1.7-7.3c0.3-1,0.4-1.5,0.5-2.6c0.1-0.9,0.2-1.4,0.6-2.3l1.1-3.3
							c0.3-0.6,0.1,0.3,0.5-1c0.5-1.7,0.5-6.5,2.9-6.3c1.2,0.4,1.9,1.8,3,2.7c0.8,0.7,0.9,0.5,1.7,1c0.1,0,0.1,0.1,0.2,0.1
							c0.1,0,0.1,0.1,0.2,0.1l5.5,3.8c1.9,1,6.1,2.4,8.1,2.3c7.3-0.5,8-16,7.5-21.6c-0.1-1.2-1.1-3.1-1.6-4.1
							c-0.7-1.4-1.5-2.1-2.9-2.9c-3.8-2.3-12.3-0.2-16.1,2.4c-0.6,0.4-1.1,1.1-1.8,0.1c-1-1.1-1.9-11.9-2.3-15
							c-0.8-5.7-0.2-11.6-0.7-17.3c-0.3-3.3-0.8-7.2-1-10.6c-0.5-7.5-0.9-14.6-1.6-21.8c-0.4-3.3-1.7-19.3-1.6-22h1.6
							c0.6,1,0.9,1.6,1.5,2.4l0.3,0.4c0,0.1,0.1,0.1,0.1,0.2c0.9,1.1,0.6,1.1,2.1,1.2c0.1-3.8-0.6-3.1-1.1-5.7
							c-0.5-2.4-2.2-8.3-3.3-10.4c-0.5-1-0.5-1.2-0.7-2.5c-0.3-1.4-0.4-1.5-0.9-2.8c-0.4-1.1-0.6-1.6-1-2.3c-0.4-1-0.5-4.9-2.6-3.7
							c-0.4,0.3-2.8,5.9-3.4,7c-1.5,2.9-1.3,2.2-0.9,5.5l1.2,12.4c0.3,4.2,0.2,8.9,0.8,12.9c0.8,5.5,1.9,20.5,2,25.4
							c0.1,2.5,0.6,3.3,0.6,6l0.9,19.6c0.4,4.1,0.7,8.3,0.8,13l1.6,13.6c0,1.7-0.1,0.9-0.5,1.4l-2.1,1.3c-1.5,0.7-3,1.8-4.8,2.2
							l-3.5,1.2c-2.5,0.9-11.7,1-13.9-0.5c-1.1-0.7-1.1-0.5-2.1-1.2c-0.5-0.4-0.6-0.4-1.1-0.7c-1.2-0.8-1.7-1.5-2.5-2.6
							C191.3,283.4,190.6,279.9,188.9,279.2L188.9,279.2z"/>
						<path class="st0" d="M3.6,291.1l-0.3-2.3c-1,0.4-0.5,0.1-1.1,0.6c-1.9,1.7-1.4,4.8-1.5,7.1c-0.4,5.5-1.4,14,0,19.5
							c0.5,2,1.1,4.1,2.2,6l1.9,3.8c1.2,2.5,4.9,5.4,8.8,5.4c0.7,0,1.4,0,2.1-0.1c1.5-0.3,3.6-1.4,4.9-2.2c2-1.1,3.1-2.9,4.8-4.6
							c1.5-1.6,2.4-3.5,3.7-5.4c0.6-0.9,1.3-1.9,1.8-2.8c0.4-0.7,0.4-1,0.8-1.7c0.9-1.6,1.8-2.4,2.6-4.3c1.2-2.9,2.7-5.6,4.6-8.1
							c0.3-0.4,0.2-0.3,0.5-0.6l0.7-0.9c0,0,0.1-0.1,0.1-0.2c2.6-3.7,7.2-8.2,11.8-9.1c1.4-0.3,2.3-0.1,3,0.9l0.3,0.5
							c0,0.1,0.4,0.8,0.4,0.8c0.6,1.5,0.4,3.3,1.3,4.8l0.8,2.4c0.4,1.4,1.8,3.3,2.6,4.7c0.8,1.4,1.9,3,3.1,4l6,3.1
							c3.6,1.2,6.3,1.6,10.4,0.9l1.7-0.5c0.7-0.3,1-0.3,1.9-0.5c2.7-0.6,7.1-3.2,8.8-5.2l0.9-1.1c3.7-3.4,3.1-3.7,5.5-7.2
							c1.4-2.1,2.1-7.6,2.5-10.1c0.4-2.4,0.7-6.2,0.2-8.9l-0.7-3.8c-0.3-1.8-0.5-2.3-0.9-3.6c-1.8-5.2-2.7-6.5-5.2-10.7
							c-0.5-0.8-0.3-0.8-0.9-1.5c-0.7-0.9-1.4-1.5-2.1-2.4c-4.7-6-10.9-10.8-15.8-16.8l-2.3-2.2c-0.5-0.6-0.6-0.8-1.1-1.4
							c-0.1-0.1-2.3-1.1,0.5-1.3c0.4,0,6.9,0.7,3.2-2.9l-5.7-5.4c-1.4-1.5-6.4-6.3-7.2-7.7c0.8-2.1,3.6-2.9,5.4-4.1
							c2-1.4,3.6-2.6,5.8-3.8c4.1-2.4,7.6-5.3,11.9-7.3l4-2.1c0.5-0.3-0.1-0.1,0.7-0.4l6.6-3c2.1-1,1.9-1.2,5-2.2
							c0.3-0.1,0.6-0.1,0.9-0.3l0.6-0.3c0.1,0,0.1-0.1,0.2-0.1c1-0.7,0.1-0.2,1.6-0.7l10.8-3.9c3.4-0.7,13.3-4.4,14.8,0.9
							c0.7,2.4,0,4-1.2,5.9c-0.4,0.7-0.6,0.8-1,1.4l-11.5,12.7c-1.5,1.7-3,3.2-4.7,4.9c-0.8,0.9-1.8,1.6-2.4,2.5
							c-0.7,1.1-1.3,2.7-1.3,4c3,0,3.8-1.3,5.3-2.8c4.6-4.6,12.2-11.6,16.3-16.8l2.4-3.6c1-1.7,2.1-3.1,2.9-4.9
							c0.9-2.1,1.7-3.6,1.8-6c0.1-5.5-0.6-8-5.5-10.2c-4.1-1.8-9.7-0.1-13.3,1c-0.6,0.2-0.7,0.2-1.3,0.5c-0.5,0.2-0.7,0.4-1.5,0.6
							l-11.7,4.3c-0.1,0.1-0.3,0.2-0.4,0.2l-2.1,0.8c-2.6,0.8-12.9,5.6-16.3,7.3c-1.6,0.8-0.6,0.7-2.6,1.3c-3,0.9-7.1,4-10,5.7
							l-2.2,1.6c-1.5,1.1-3.3,1.9-4.7,3.1c-5.7,4.7-5.7,4.4-6.6,9.2c-0.8,4-1.8,9.2-1.9,13.7c-0.1,3.4,0.5,4,1.7,6.3l2.1,3.6
							c0.3,0.5,0.5,0.5,0.9,1.2c1.3,1.9,2.7,4.2,4.3,5.9l0.7,0.8c1.3,1.7,4.9,4.9,5.7,6c1.1,1.6,0.2,0.9,1,1.7
							c1.5,1.4,3,2.6,4.3,4.2c0.1,0.1,0.2,0.3,0.2,0.3c1.4,1.7,2.8,2.9,4.1,4.7l3.1,3.9c0.5,0.7,0,0.3,0.7,1.1l1.6,1.6
							c1.1,1,1.8,2.3,2.6,3.5c0,0.1,0.1,0.1,0.1,0.2c0.9,1.7,2.3,3.4,2.9,5.3c1.6,4.8,4,8.7,0.3,13.4c-2.8,3.5-8.8,7.5-13.1,8.5
							c-2.4,0.5-4.3,0.8-7.1,0.7c-1.9-0.1-5.4-1-6.7-1.9c-0.2-0.1-0.4-0.2-0.6-0.4c-0.7-0.4-0.7-0.4-1.3-0.8
							c-0.8-0.6-1.5-1.2-2.1-1.8c-3.3-2.9-2.7-8.5-3.2-12.3c-0.3-2.1-0.7-4.4-2.8-5.3c-5.4-2.2-13,3.2-16.3,6.7
							c-5.8,6.3-6.7,9.2-10.2,13.3c-0.9,1-0.4,0-0.7,1c-0.4,1-0.6,2-1.2,2.8c-0.9,1.2-1.3,2.7-2,4l-2.4,3.2c-0.3,1-0.1,0.6-0.7,1.5
							c-4.6,6.7-12.9,11.5-18.4,2.9c-0.6-1-0.7-1.7-1.2-2.7C0.5,304.8,4.3,295.7,3.6,291.1L3.6,291.1z"/>
						<path class="st0" d="M90.4,334.8c1.2-0.6,0.5-0.6,2-1.3l12.6-7.9c0.6-0.4,0.2-0.2,0.8-0.6l2.5-1.8c0.1,0,0.1-0.1,0.2-0.1
							s0.1-0.1,0.2-0.1l10.3-8.1c0.3-0.4,0.1-0.2,0.4-0.7c0.2-0.4,0.3-0.6,0.7-0.9l0.7-0.5c0.8-0.5,0,0.4,0.7-0.7l2.7-4
							c0.6-1,1.7-2.3,2.2-3.2c0.2-0.3,0.3-0.7,0.4-1.1c1.3-3,2.6-5.9,3.2-9.1c0.7-3.6,0.8-9.2,0.1-12.8c-0.2-1.1-0.4-1-0.7-2
							c-1-3.2-3.2-7.1-3.1-10.4c1.6,0,2,0.5,3.9,0.3c0.2-2.1-1.1-3.2-2-4.8l-5.3-8c-1.1-1.4-1.9-2.9-3.7-3.3
							c-0.3,0.9-0.8,1.6-1.2,2.5l-2.7,7.5c-0.7,2.2,0.6,2.8,1.1,5.4c0.4,2.3,1.8,5.5,2.7,7.8l2.7,5.9c0.1,0.2,0.3,0.6,0.5,1
							c1.1,2.5,1.2,2.3,1.7,5.1c0.5,2.5,1.3,1.4,1,5.5c-0.8,0.6-1.4,1.6-2,2.3c-3.3,4.1-7,7.5-11,11l-7.5,5.8
							c-5.2,4.2-12.9,8.5-18.7,11.6c-1.8,1-4,1.9-5.8,3l-11.8,5.6c-1.2,0.5-1.7,0.9-3.1,1.4l-6.2,2.6c-0.8,0.4-0.5,0.4-1.3,0.8
							c-0.5,0.2-1,0.2-1.7,0.5c-3.2,1.1-9.9,3.6-12.5,5c-1.2,0.6-1.6,0.9-3,1.5c-1.9,0.8-2.2,0.5-2.2,2.3c0.6,0.5,1.2,0.5,1.4,0.5
							c1.1,0,2.4-0.5,3.6-0.5c4.8-0.2,9.8-1.3,14.5-1.8c3.3-0.3,6.9-0.6,9.9-1.3c2.5-0.6,11.6-4,13.8-5.6L90.4,334.8L90.4,334.8z"/>
						<path class="st0" d="M491.2,274c0,9.6,0.4,16.2,0.2,26.2c0,1.7-0.1,1.6,0.7,2.6c0.8-0.3,0.6-0.4,1.4-1.1l1.1-1.6
							c0.8-2.6,1.6-3.1,2-4c0.8-2-0.7-1.4,1.6-2.2c0-2.2,0-3.9,0.6-5.6c1.1-3.5,1-14.3,1-18.8c0-3.1-0.1-12.5-0.4-15.2
							c-0.1-1.2-0.2-2.2-0.2-3.8c0-2-0.4-1.6-0.6-3.3c-0.4-4.4-0.3-8.6-0.4-13c0-2-0.5-3.2-0.6-5.1c-0.1-2.5-0.5-2.6-0.6-4.8
							l-0.3-10.9c0-2.1-0.4-3.1-0.6-5.1l-0.3-13.1c0.8,0.6,0.5,0.6,1.1,1.3l2.2,2.2c3,2.2,1.6-4.6,1-5.9l-3-9.4
							c-0.4-1.2-1.1-2.4-1.4-3.4c-1.1-4-0.7-1-1.2-3.6c-0.5-2.4-1-1.1-1.5-3.2c-0.5-1.8,0.1-2.7-2.3-2.8c-0.9,1.5-1.5,2.9-2.3,4.5
							c-1.7,3.2-1.4,0.1-2,3.3c-0.1,0.4,0,0.4-0.2,0.8c-0.3,1.1,0.1-0.2-0.3,0.7c-1,2.5,0.3,2.4,0.3,6c0.1,6.9,1,14.5,1.2,20.2
							l1.8,34c0.1,2,0,5,0.4,6.8c0.5,2.6,0.7,10.7,0.8,13.4c0,5.3,0.4,4.1,0.6,6.6C491.3,269.1,491.2,271.6,491.2,274L491.2,274z"/>
						<path class="st0" d="M297.6,233c1.2-1.1,2,0,2.9,0.9l1.2,1.1c0,0,0.1,0.1,0.2,0.1l0.9,0.6c0.5,0.4,0.3,0.2,0.7,0.6
							c1.9,1.9,0.9,0.1,2.8,2c3.7,3.9,3.1,3.6-0.2,6.9c-2,2-1.6,2-3.8,3.2c-3.7,2.1-1.4,1.4-6,3.3c-4.1,1.6-8.3-1.1-5.1-6.6
							c1.8-3.1,0.5-1.4,1.3-3.4L297.6,233L297.6,233z M298.9,219.1c-1.8,0.1-1.9-0.5-3.2-1.6l-5.4-4.9c-0.9-0.8-1.9-1.1-2.1-2.7
							c0.6-0.3,1.4-0.4,2.2-0.6c-0.2-1.5,0-1.2-1.9-2.8l-4.7-4c-3-2.1-0.7-1.6-2.7-1.9c-0.8,1.3-2.5,9.6-1.6,11.6l3.9,5.2
							c0.9,1.6,1,1.3,2.1,2.5l2.1,2.4c7.2,8,6.2,2.9,1.4,13.4c-2.4,5.2-3.2,8.1-3.1,15c0,3.5,1,9.4,3.7,11.8c0.8,0.7,2.8,1.6,4,1.8
							c5.6,0.7,13.5-4.6,16-9.3c0.3-0.6,1-1.9,1.3-2.6c1.7-4.9,1.6-9.1,1.6-14.3c0-8.5-6.4-12.1-7.4-14.2l9.1-14.1
							c0.5-0.7,1.1-1.4,1.5-2.1c0.5-0.8,0.7-1.3,1.2-2.1l5.5-14.3c0.1-1.2,0.2-2.6-0.6-2.9c-1.6-0.6-4.2,3.4-4.3,3.5
							c-0.6,1.1,0.4,0.1-1.1,2.3l-4.3,7.4c-0.4,0.7-0.3,0.4-0.8,1.1L298.9,219.1L298.9,219.1z"/>
						<path class="st0" d="M323.4,275.7l1.9-0.4c2.9-1.6,5.2-4.3,8.3-5.5l3.7-2c4.5-2.9,9.7-5.2,14.5-7.8l13-6
							c0.7-0.4,1.6-0.5,2.2-0.8c1.1-0.6,0.2-0.5,1.7-1c1-0.3,1.1-0.4,2-0.8l7.7-3.4c1.3-0.6,2.5-1.3,3.9-1.8l17.3-7.4
							c1.3-0.4,1,0,2-0.7l1.9-0.9c1.6-0.6-0.3-0.4,2-1c1.9-0.5,0.3,0,1.7-0.9c0.7-0.5,1.3-0.4,2.1-0.7c1.2-0.4,0.2-0.4,1.9-0.9
							c1.4-0.4,1.1,0,2.1-0.8l7.8-4.3c2.7-1.8,7.2-3.7,10.2-5.2c0.8-0.4,1.1-0.4,1.6-1.1l0.6-1.2c0-0.1,0.1-0.1,0.1-0.2l0.9-2.7
							c0.9-2.3,2.4-3.7,2.1-6.3c-2.4-0.1-2.5,0.9-4.3,1.9l-8.2,4.4c-2.9,1.6-6.6,3.1-8.5,4.2c-1.5,0.9-3.3,1.4-4.8,2.1
							c-0.9,0.4-0.5,0.5-1.8,0.9c-2.6,0.8-5.4,2.1-7.8,3.4c-1.8,1-4,1.4-5.8,2.4l-7.4,2.9c-2.4,0.8-0.4-0.1-2.4,1.1l-5.8,2.6
							c-4.6,1.8-8.8,4-13.3,5.9c-1.1,0.5-2.2,0.2-3.2,1l-0.7,0.6c-1.7,1.1-4.1,1.9-5.8,2.7c-2,1-3.2,1.9-5.5,2.9l-8.1,4.2
							c-0.4,0.2-0.6,0.3-1,0.5l-13.6,8.4c-3.1,2-2.8,3.7-4.2,6.9C323.7,272.9,323.2,273.3,323.4,275.7z"/>
						<path class="st0" d="M264.9,258.4c0.1,0.8,0,1.5,0.2,2.3c1.3,6.6,0.2,38.1,1,40.7c2-0.9,0,0.2,0.8-0.6l2.2-4.2
							c1.5-3,3-7.7,3.2-11.2c0.1-1.2,0-2.4,0.2-3.5c0.2-1.2,0.5-1.4,0.5-3.1c0-4.8,0-9.7,0-14.5c0-4.6-0.8-8.8-0.9-13.6
							c0-2.5-0.3-4.4-0.3-6.9c0-2.7-0.5-4-0.6-6.6l-0.9-24.6c-0.8-3.7-1.3-15.3-0.5-17.2l0.7,0.5c0,0.1,0.1,0.1,0.2,0.2
							c1,1.1,2,2.6,3.5,2.9c1.4-2-0.7-8.2-1.4-9.7c-0.5-1.1-0.3-0.6-0.6-1.9c-0.1-0.3-1.9-4.4-2.6-7.3l-3.4-8.6
							c-0.6-1.2,0-0.6-1.1-1.2c-0.8,0.6-2.7,4.7-3.2,5.9c-0.9,2.3-2.4,4-1.6,6.9c0.6,2.5,0.4,5.8,0.5,8.6c0.1,3.2,0.8,7,0.8,7.8
							c0.1,5.6,0.2,11.7,0.8,17c0.2,1.5,0,3,0.2,4.4c0.1,1.3,0.4,2.1,0.5,3.6l1.4,25.2C264.9,252.4,264.7,255.8,264.9,258.4
							L264.9,258.4z"/>
						<path class="st0" d="M5.8,178.1c0,7.6,0,2,7.9,9.8c0.9,0.9,3.1,3.9,3.5,5.2c1.3,3.7,0.1,4.3-1,7c-0.3,0.8-0.3,0.7-0.7,1.4
							s-0.4,0.5-0.8,1.4c-3,5.4-5.2,10.9-5,17.5c0.1,4.1,2,2.5,0.2,6.1l-3.1,6.9c-1.1,3-1.8,3.2-2.4,6.6c-0.3,1.6-0.5,0.8-1,3.2
							c-0.8,4.1-3,8.7,0.1,15c0.1,0.3,1.6,2.3,1.9,2.6c1.7,1.9,4.7,1.7,7,0.3c2.7-1.6,6-7.5,5.8-12.1c-2.7,0.1-1.7,1.3-3.5,3.2
							c-2.9,3.1-5.8,2.8-7.9-0.3c-1.7-2.6-1-8.1,0.2-11.1l1.6-5c0.5-1.4,3.4-8.9,4-9.5c0.7-0.6,1.2-0.4,2.1-1.2
							c1.3-1.1,0.9-1.6,2.7-3.9c2.3-2.9,2.7-5.7,6.5-10.1c0-0.1,0.1-0.1,0.1-0.2l2.2-2.3c0.5-0.4,0.5-0.4,0.9-0.9l2.6-2.2
							c0.5-0.3,0.6-0.5,1-0.8c2.5-1.6,4.9-0.8,6.7,1.3c0.3,0.3,0.6,0.8,0.8,1c1.7,1.8,2.3,0.3,2.7-1.9c0.4-2,1.1-5.2-0.2-6.9
							c-2-2.8-5.3-3.6-8.7-2.1c-3,1.3-6.1,4.6-8.5,7.2c-1.2,1.3-2.2,2.9-3.3,4.5l-5.3,8.3c-0.7,0.8-0.5,0.6-1.5,0.8
							c-0.3-4.5,0.6-4.8,1.4-6.9c1.4-3.5,2.8-4.3,3.9-8.2c0.3-1,0.8-1.5,1.1-3.1c0.1-0.5,0.2-1.1,0.5-1.6c0.6-1.3,0.3,0.2,0.6-1.5
							c0.6-3.4,0.6-8.1-0.8-10.9c-1.2-2.6,0-0.5-3.6-4.4c-2.1-2.3-4.1-3.8-6.4-6c-1.1-1.1-0.9-1.5-2.9-1.7
							C6.3,174.7,5.8,174.9,5.8,178.1L5.8,178.1z"/>
						<path class="st0" d="M205,231.5c-0.8-0.1-0.1,0.1-0.9-0.4c-0.6-0.4-0.7-0.6-1.2-1c-1-0.8-1.9-2.1-0.8-3.2
							c2-1.9,5.6,2.6,3.8,4.4C205.6,231.5,206.5,231.7,205,231.5L205,231.5z M202,238.1c0.1,1.2,0.3,1.4-0.5,2.3l-0.4,0.5
							c-0.1,0.1-0.1,0.1-0.1,0.2l-1.2,1.8c-0.2,0.3-0.4,0.6-0.5,0.7l-0.6,0.6c-0.1,0-0.1,0.1-0.1,0.2l-7.4,7.9
							c-0.1,0-0.1,0.1-0.2,0.1l-7.2,6.3c-4,3.2-7.6,6.1-12.1,8.7l-7.8,4.6c-0.7,0.4-3.5,2-3.8,2.7c-0.6,1.6-0.2,0.5,0.1,1
							c0.6,0.6,7.2-1.9,8.7-2.5c5.3-1.9,7-3.7,11-5.9c4.5-2.5,12-9.3,15.6-13.2c0.8-0.8,1.4-1.9,2.1-2.7c0.8-0.9,1.4-1.6,2.2-2.6
							c1.3-1.7,1.6-2.5,2.3-3.8c1.1-2.1-0.9,1,0.5-0.7l0.1-0.1c0-0.1,0.1-0.1,0.1-0.2c1.8-2,1.3-2.9,2.8-3.5
							c0.8-0.4,0.7-0.3,1.5,0.1c1.2,0.7,3.4,3.6,4.1,0.7c1.4-6.4,0.7-5.4-1.2-7.1c-2.1-1.9,1.6-7.1-0.3-12.3
							c-1.8-4.9-7.7-4.1-9.9,2.8c-0.7,2.2-1.8,5.4-1.5,8.1C198.1,235.2,200,236.9,202,238.1L202,238.1z"/>
						<path class="st0" d="M363.2,334.1c0.5,0,0.8-0.1,1.2,0.1c0.8,0.4-0.3-0.4,0.5,0.4c0,0,0.1,0.1,0.1,0.2l0.6,0.6
							c1.1,1,2.5,1.2,3.8,0.4l1.3-1.5c0.9-1.6,2.7-7,1.7-9.2c-1.2,0.1-0.8-0.5-1.3,1c-0.2,0.7-0.1,1-0.2,1.7c-0.1,0.8-0.8,1.7-1.4,2
							c-1.9,1.2-3.4-2-3.6-2.2c-0.5-0.7,0.2-0.1-0.5-0.6c-1.6-0.5-2.1,0.9-3,2.4c-2.2,3.7-5,2.9-5.9,1.4c-1-1.5,0.5-2.4-1.5-3.4
							c-2.4-1.2-5.1,0.7-6.8,1.5c-2.8,1.2-2.4,0.6-5.8,2.7c-1.5,0.9-14.5,5.3-16,5.5c-6.3,1.1-13,2.1-19.5,1.9
							c-2.7-0.1-5.1-0.8-7.8-0.3c0.1,0.6-0.2,1.4,1.2,1.9c1.4,0.6,15.9,1.5,17.4,1.5c7.5,0.1,14.2-1.7,20.1-3.8
							c1.1-0.4,0.5-0.4,1.8-0.8c3.9-1.3,9.9-4.2,11.7-4.5c3.2-0.5,1.7,4.5,5.3,5.1c1.4,0.2,3.5-0.5,4.3-1.2
							C362,336.4,362.6,335,363.2,334.1L363.2,334.1z"/>
						<path class="st0" d="M332.4,208.2l2.5-0.4l13.8-7.3c1.1-0.5,2.6-1.8,3.7-2.2c0.8-0.4,1.4-0.5,2.2-0.9l1.4-0.7
							c2.2-1.3,2-0.9,4.6-2.3l5.1-2.7c0.1,0,0.1-0.1,0.2-0.1s0.1-0.1,0.2-0.1l2.6-1.3c3-1.7,5.7-2.6,8.1-3.9
							c1.3-0.7,4.4-2.6,5.9-3.1c1.7-0.5,9.1-4,9.8-5.4c0.4-0.8,0.4-1.4,0.8-2.2c0.5-1.2,0.6-1.1,0.5-2.8c-1.8,0-2.7,1-4.2,1.8
							l-46.7,22.8c-1.9,1.1-8.4,4.6-9.5,5.6c-0.9,0.9-1,1.7-1.2,3.5c0,0.5-0.1,0.3,0,0.8c0,0.1,0,0.2,0,0.3L332.4,208.2L332.4,208.2
							z"/>
						<path class="st0" d="M465.8,339.2c0.6-1.5,3-5.3,4-6.9c1.4-2.4,4.1-7.6,4.3-10.2c0.4-4.9,0.7-8.9-1.4-12.6l-1.2-1.8
							c0,0-0.1-0.1-0.1-0.2c0,0-0.1-0.1-0.1-0.2l-2.5-2.6c0,0-0.1-0.1-0.2-0.1c-0.4-0.4-0.5-0.4-0.9-0.9c-1-1-1-1.2-2.6-1.1
							c-0.4,1.2-1.9,5.9-0.8,7.5c1.2,1.8,1.3-1.3,3.9,2.4c3,4.4,5.8,7.4,1.9,12.9c-2,2.8-4.5,5.9-5.6,9.2c-0.2,0.6-0.3,1.1-0.4,1.7
							c-0.4,2-3,14.7,1.6,13.4c1.5-0.4,4.5-6.2,5.3-7.4c0,0,0.1-0.1,0.1-0.2l0.4-0.5c0.2-0.3,0.4-0.5,0.5-0.7
							c2-2.5,8.1-9.8,11.6-6.9c1.4,1.2,0.3,2,3.1,1.8c0.3-3.8,1.6-8.3-2-9.5c-3.9-1.3-6.4,1.6-8.3,3.1c-1.4,1.1-2,1.6-3.1,3
							c-0.9,1.1-1.9,1.9-2.7,3c-2,2.6-3.1,6.6-4.9,6.6C465.2,341.3,465.4,340.4,465.8,339.2L465.8,339.2z"/>
						<path class="st0" d="M148.2,329.1c-2,1.9-4,2.8-6.7,6.5c-0.1,0.1-0.2,0.3-0.3,0.4l-3.8,6.7c-0.9-0.1-0.5-0.1-1.3-0.6
							c-0.1-1.8,1-3.8,1.7-5.1l2.1-3.3c5.3-8.3,3.1-6.1,4.9-11.4c1.2-3.7,0.3-10.1-1.4-12.6c-3.4-5.1-2.6-3.3-5.1-5.8
							c-1-1-0.6-1.1-2.5-1c-0.9,1.8-1.5,5.4-0.7,7.5c1.9,0.8,1.3-0.6,3.1,1.4l0.4,0.5c2.1,2.5,5.7,8.2,3.5,11.3l-5.8,8.7
							c-1.6,3.5-2.4,8.1-2.5,12.2c0,2.7-0.5,4.7,1.7,5.5c1.6,0.1,3.2-2.7,3.9-3.7l3-4.5c0-0.1,0.1-0.1,0.1-0.2
							c0.1,0,0.1-0.1,0.1-0.2c2.2-2.8,5.9-7.9,9.7-7.9c3.1,0,2.1,1.1,3.2,2.4c1.7,2,2-1.2,2.2-2.3c0.6-3.7,0.6-6.9-3.6-7.1
							C151.3,326.3,149.8,327.6,148.2,329.1L148.2,329.1z"/>
						<path class="st0" d="M298,181.4c-0.9-0.5-0.9-0.7-2-1.3c-5.2-2.7-4.2-3.8-7.4-3.6l-2.2,4.7c-0.9,1.6-2,2.8-2,5.3
							c1.5,1.1,2.4,2.2,4.5,3c2.8,1.1,1.9,2.4,5.5,2.1c0.7-1.5,2.1-3.4,2.8-5.1c0.2-0.6,0.4-1.2,0.8-1.8c1.9-0.1,1,0.5,4.5,2.6
							c6.1,3.6,5.4,2,7.9-2.6c0.5-0.9,0.6-1.7,1.1-2.5c0.1-0.2,1.5-1.4,0.6-2.7c-0.6-0.8-1.3-0.7-2.4-1.3c-1-0.6-1.2-0.9-2.1-1.4
							c-2.2-1.3-3.5-2.5-5.4-2.6l-2.8,5.6C298.9,180.8,298.6,180.7,298,181.4L298,181.4z"/>
						<path class="st0" d="M345.8,235.3c-2.1,0.1-2.4-1-4.5-2.2c-6.2-3.4-4.3-4.2-7.5,2c-2.7,5.2-3.7,5.2,1.9,8.5
							c6.3,3.6,4.9,3.1,7.6-0.8c0.5-0.7,0.7-1.3,1.1-1.9l1.3-1.8l4.1,2.5c1,0.6,1.3,0.4,2.2,1.1c1.3,0.9,0.5,1,2.8,0.9
							c2.8-4.3,2.4-4.7,3.8-7c0.7-1.1,0.7-1.4,0.7-3c-4.1-2.6-4.3-2.1-8-5c-2.2-1.7-3,1.3-4.4,4.4
							C346.4,233.8,346.1,234.6,345.8,235.3L345.8,235.3z"/>
						<path class="st0" d="M31.7,247.7c0,0.1-0.1,0.1-0.1,0.2l-2.1,4.3c-0.8,1.6-2.1,3.1-2.1,5.1c0.6,0.5,1.1,1.1,1.9,1.7
							c1.7,1.4,5.4,3.6,7.7,3.6c0.7-1.1,1.2-1.9,1.9-3.2l1.9-3.4c2.1-0.1,1.6,0.4,4.4,2.2c1,0.6,3.4,2.2,4.4,2.5
							c1.6-0.8,1.1-0.2,1.9-1.7c0.8-1.4,3.9-6.7,3.5-8.1c-0.3-1.1-1.1-1.1-2-1.7c-2-1.1-5.5-3.9-7.6-4.3l-2.2,4.2
							c-0.3,0.7-0.5,1.9-0.9,2.5c-1.1,1.9-3.1-0.1-5.9-1.8c-0.9-0.5-1.3-0.8-1.9-1.3C33.3,247.7,33.3,247.6,31.7,247.7L31.7,247.7z"
							/>
						<path class="st0" d="M169.5,218.1c0.1,0,0.2,0,0.2,0.1s0.2,0,0.2,0c0.4,0,0.8,0.2,1.5-0.9c1.6-2.2,1.1-2.2,2-4.4
							c0.4-0.9,0.6-1.3,1-2.2c2.6-6.2,2.9-16.9-0.1-23.4l-5.2-10.1c-0.5-0.9-1.1-1.4-1.7-2.3c-2.6,0-2.2,0.3-4.1,3.7
							c-1.4,2.6-0.2,3.9,1.1,5.5c1.5,1.9,4.1,7.2,5.1,9.6c1,2.3,1.3,2.3,1.9,5.2c0.8,4.1,0.8,11.1-0.9,14.8l-1.3,3.2
							C169.3,217.3,168.8,216.4,169.5,218.1L169.5,218.1z"/>
						<path class="st0" d="M410.7,324.8c-0.4-0.5-0.5,0.3-0.5-1.1c0-2.6,3.1,0.2,4.6-1.4c2.3-2.3-0.5-6.4-4.4-3.5
							c-1.8,1.3-4.1,4-4,7c0.1,4.5,4.6,4.1,4.5,6c0,0.2-3.5,3.6-4.2,10.3c-0.5,4.9,2.8,6.7,6.8,7.6c2.5,0.5,4.8-0.1,6.7-0.4
							c5-0.9,5.7-1.5,9.9-4.4l3.1-2.3c0.6-0.8,0.3,0.2,0.6-1.2c-2.6-0.3-2.2,0.4-4.2,1.1c-4.3,1.8-6.1,3.1-11.9,3.2
							c-1.7,0-3.1-0.1-4.5-0.6c-2-0.7-2.8-2.3-3.6-4c0-0.1-0.1-0.1-0.1-0.2s-0.1-0.1-0.1-0.2c-0.7-2.1,0.5-2.6,0.7-5.1
							c1.3-0.8,0.6,0.1,1.5-1.3c4.5-7.1,8.9-4.9,9.3-10.2c-1.7-0.2-1-0.6-2.4,0.2c-4,2.4-2.5,2.3-6.6,2.1L410.7,324.8L410.7,324.8z"
							/>
						<path class="st0" d="M95,174.8c-5.1,3.5-12.7,7.2-17,9.9l-23.4,13.1c-1.3,0.8-1.5,1.2-1.7,2.9c-0.6,4.5,0.7,3,4.3,1
							c0.9-0.5,1.8-1.1,2.8-1.8c0.8-0.6,2-1.1,2.9-1.6c1.2-0.6,1.8-1.1,2.9-1.6c1-0.5,1.9-0.9,3-1.5l8.7-5.2c5.8-3.1,3.4-1.4,8.5-5
							l2.1-1.2c1.7-1,5.1-2.9,6.3-3.9c1-0.9,2.9-3,2.3-4.7c-0.2-0.6,0.9-0.4-0.6-0.6C94.3,174.2,95.6,174.5,95,174.8L95,174.8z"/>
						<path class="st0" d="M408.5,202.8c0,3.5,0.4,4.9,1.9,7.2c1.6,2.6,8,6,11.1-1.7c0.8-2,2.4-5.3,1.3-7.9c-1.1,0.3-0.6,0-1.2,0.9
							c0,0-2.2,6.8-7,2.8c-4-3.3-2.1-8.2-1.6-10.8l1.9-5.1c0.8-1.6,1.6-3,2.7-4.5c0.9-1.3,1.5-3.4,2.4-4.8c0.7-1.2,0.5-1.3,0.9-2.8
							c0.5-1.7,0.8-0.9,0.7-3.1c-2.7,0.1-2.6,2.8-4.7,6.1c-0.7,1.1-1.1,2.1-1.8,3.3c-0.8,1.3-1,2.4-1.7,3.8
							C410.8,191.4,408.5,197.3,408.5,202.8L408.5,202.8z"/>
						<path class="st0" d="M171.6,241.8c-2.1-0.2-2.5,2-2.7,2.4c-0.7,1.3-2.3,2-3.7,1c-3.8-2.6-1.8-7.7-0.9-10.6
							c1-3.4,5.8-11.1,5.8-13.9c-2.4,0.4-1.5-0.1-3.3,3.2l-5.5,11.2c-1,3.1-1.5,3.4-2,8.5c-0.2,1.9-0.1,2.3,0.4,3.5s0.4,3.3,3.4,5
							c2,1.1,3.9,1.2,5.7-0.8C170.9,249.1,172.2,245.3,171.6,241.8L171.6,241.8z"/>
						<path class="st0" d="M102.7,245.7c2.1,0.1,8-3.5,10.4-4.5l10.2-4.6c1.3-0.8,2.7-1.1,4.2-1.9l4-2.1c0.7-0.5,0.9-0.9,1.3-1.8
							l-0.2-2.6c-1.7-0.2-2.5,0.9-6,2.2c-3.6,1.3-21,9.1-22.3,10.6C103.4,241.9,102.7,244.2,102.7,245.7z"/>
						<path class="st0" d="M344.4,229.2c0.9-1.1,3.4-6.4,3.6-6.8c0.9-1.2,0.9-1.1,0.8-3.2c-0.7-0.4-1.5-0.9-2.3-1.4l-4.5-2.7
							c-1.3-1-0.9-1.1-3.1-1.1c-0.2,0.9-0.4,1.6-0.9,2.4l-2.2,4.7c-1.8,2.7-0.6,2.7,1.6,4.2l4.4,2.8
							C342.9,228.9,342.6,229.2,344.4,229.2z"/>
						<path class="st0" d="M183.2,337.1c0.7-0.3,1.3-1.4,1.7-2.1c0.5-0.8,0.2-0.6,0.6-1.3c0.5-1.1,0,0.1,0.7-1
							c0.7-1,0.4-1.6,1.1-2.6c0.8-1.3,0.9-0.6,0.9-2.6c-1.5-0.9-2.9-1.9-4.7-2.9c-2.1-1.2-2.4-2.4-5.2-2.4c-0.3,0.6-0.8,1.5-1.2,2.4
							l-1.6,3.7c-1.2,3-1.2,0.9-1.3,3.9c0.8,0.5,1.4,0.8,2.3,1.4C178.2,334.6,181.6,337,183.2,337.1L183.2,337.1z"/>
						<path class="st0" d="M51.1,324.2c-1.6,0.3-0.8,0.1-1.6,1.4c-1.8,3-4.8,1.4-5.7,0.4c-2.1-2.6-0.6-7.9,0.8-10.3
							c0.5-0.9,0.3-1,0.7-2c0.4-1.1,1.3-2.4,1.8-3.4c0.4-0.9,0.2-1.3,0.7-2.1c0.6-1,0.4-0.1,0.9-1.8c0.6-1.8,1.8-2.3,0.7-3.9
							c-1.2,0.6-4.3,7.2-5.6,9.4c-0.3,0.4-0.1,0.1-0.3,0.6c-1.5,3.5-3.4,7-3.7,11.8c-0.2,4.6-0.1,4,1,6.9c1.3,3.3,6.1,5.3,9.2-0.8
							c0.6-1.2,0.9-1.2,1.1-2.8C51.5,326.2,51.5,325.2,51.1,324.2z"/>
						<path class="st0" d="M201.5,194.2l-2.7,3.3c-1.8,1.7-5.7,0.2-6-3.8c-0.2-3.3,1.6-7.9,3.1-10.9c0.6-1.1,0.5-0.5,1.1-1.9
							c0.6-1.3,1.2-2.6,1.9-3.8c0.5-0.9,0.4-1.4,0.8-2.3c0.5-1.3,0.2,0.1,0.5-1.1c0.2-0.9,0.1-0.6,0-1.6c-1.5,0.6-1.6,0.4-2.2,1.9
							l-2.7,5.1c-0.4,0.9-0.3,0.7-0.7,1.4l-1.9,4.3c-0.3,0.8-1.7,3.7-2.2,5.6c-0.3,1.1-0.4,2.5-0.6,3.6c-0.2,1.1-0.4,2.5-0.1,3.7
							c0.1,0.4,0.6,2.5,0.8,3.1c1.2,3.3,6.6,6.3,9.6-0.1C201,199.4,202.2,196,201.5,194.2L201.5,194.2z"/>
					</g>
				</g>
				<g>
					<path class="st0" d="M301,408.3c1.9-7.6,5.4-18.8,11.1-21.3c0.4-0.2,0.8-0.1,1.2,0.1c0.4,0.2,0.6,0.5,0.6,0.9v7
						c0,0.4-0.2,0.8-0.6,1c-2.9,1.5-5,5.5-6.2,8.2c-2.2,4.9-3.5,10.2-4.2,15.5c-0.1,0.6-0.6,1-1.2,1h-1.2c-0.6,0-1.1-0.4-1.2-1
						c-0.7-5.1-2.2-10-4.7-14.6c-1.5-2.7-3.9-6.8-7.1-8.1c-0.5-0.2-0.7-0.6-0.7-1.1l0.5-7.6c0-0.4,0.2-0.7,0.6-0.9
						c0.3-0.2,0.7-0.2,1.1-0.1c3.7,1.4,6,5.2,7.6,8.3C298.4,399.5,299.8,404,301,408.3L301,408.3z"/>
					<path class="st0" d="M180,417.2l0.1-1.1c1.3,0,1.7,0.2,2.4,0.9c0.2,0.2,1,0.9,1.1,1.3c0.1,0.5,0.1,0.7-0.4,0.7
						c-1.6,0.1-1.7,0.2-3.2,0C179.3,418.8,179.8,418,180,417.2L180,417.2z M176.5,418.5c-0.9-0.1-1.5-0.2-1.9-0.6
						c-0.1-0.2-0.1,0.1-0.1-0.4c-0.2-1.2,0.7-2.4,1.4-3.2c0.2-0.2,0.9,0.1,1.2,0.1c0.7,0.2,1.2,1.3,1.3,2
						C178.6,417.3,177.6,418.6,176.5,418.5L176.5,418.5z M163.5,431.4l0.1-0.1l3.9-1.2c0.4-0.5,1.6-1,2-1.1v1.3
						c-0.5,4.3,0.6,12.4,2.4,16.6c1.1,2.6,2,3.1,2.4,3.9c0.9,0.4,1.9,2.2,4.9,1.7c5.2-0.8,7.3-6.2,9.2-11c1.2-3.1,5.8-13.6,9.9-13.4
						c0.9,0,1.3,0.8,1.4,1.9c1.5,6,2.4,10.4,7.1,12.9l0.4,0.2c1.9,0.6,4.2,0.7,6.1,0.2c2.8-0.8,4.7-3.2,6.3-5.4
						c2.1-3.1,0.7,0.5,9.2,4.6c3,1.5,11.6,3.4,15.2,3.5c1,0,1.2,0.1,1.9,0.2c0.8,0.1,1.6,0,2.4,0.1c1.3,0.1,3,0.2,4.3,0.3
						c7.4,0.2,12.6-0.5,19.6-1.4c0.4,0,0.7-0.1,1-0.1l7-1.4c2.6-0.7,6.8-1.6,9.2-2.5l3.6-1.2c2.3-0.7,4.6-1.6,6.8-2.5
						c1.1-0.5,2.1-0.9,3.3-1.4c1.2-0.5,1.9-1.2,3-1.1c0.8,2.3,0.5,4,1.9,6c2.2,3,7,3.4,10.3,1.8c1.2-0.6,2.6-1.6,3.6-2.5
						c0.4-0.4,1.6-1.6,1.9-2.1c0.3,0.8,0.2,0.1,0.4,0.2c0.8,0.3,1.7,2.2,4.1,3.1c4.6,1.8,8.7-1,9.6-6.1c0.5-2.7,0.1-4.8-0.5-7.4
						c0.1-0.7-1.3-4.3-2.1-4.3c-0.6,0-1.4,1.7-1.5,2.3c-0.4,0.9-1.6,3.3-1.5,4.3c0.2,1,1.9,2.8,1.9,3.7c-1.8,0.8-4.2,1.1-5.7-0.2
						c-2-1.7-0.4-3.6-1.1-5.8c-1.4-0.3-2.1,1-2.7,1.9l-2.2,2.6c-1.5,1.8-3,3.2-5.7,3.9c-2.8,0.6-5.9-0.6-6.8-2.4
						c-1.5-3,1.5-7.2-1.3-7.3c-0.4,0.4-3.7,2-4.5,2.3c-5,2.3-9.8,4-15.2,5.4c-15,4-34.3,5.2-49.7,2.6c-5.6-1-10.8-2.2-15.1-5.6
						c-3.4-2.7-1-2.7-1.9-4.3c-1.2-0.4-1.4,0.9-1.8,1.7c-2.3,4.5-5.3,7.6-10.9,7.3c-7.9-0.4-7.2-9.6-8.7-13c-0.9-2-2.8-2.3-4.8-1.2
						c-4.6,2.4-7.2,7.9-9.2,12.5c-1.4,3.3-2.6,7.8-5,9.5c-1.4,1-4,1.4-5.8,0.6c-1.4-0.7-2.6-2.4-3.3-3.9c-2.4-5.2-1.4-8.3-1.8-12.4
						v-0.8c1.3-0.5,5.4-4.2,6.1-5.2c0.4,0.4,0.1,0.3,0.9,0.2c0.6,0,0.4-0.1,1.1,0c5.6,0.6,5.1-0.7,6-1.6c0.1-1.6,0.9-3.8,0.3-5.6
						c-0.8-2.6-4.5-4.5-6.8-5.6c-3.3-1.5-2.6-2.3-3.7-2.5c-0.4,0.7-0.6,2.8-0.5,3.8c0.1,1.1,0.1,0.5-0.3,1.5c-0.5,1.5-0.6,4-0.8,5.6
						c-0.2,1.8,0,2.1,1,3c-0.5,1.9-6.5,6-8.6,7.3c-1.1,0.7-2.8,1.4-3,2.4L163.5,431.4L163.5,431.4z"/>
					<path class="st1" d="M179.5,417.1l0.2-1.5h0.4c0.7,0,1.2,0,1.6,0.2c0.4,0.1,0.7,0.4,1.1,0.8l0.1,0.1c0.4,0.3,1,1,1.2,1.5
						c0.1,0.4,0.1,0.6,0,0.8c-0.1,0.3-0.4,0.4-0.8,0.4h-0.7c-1,0.1-1.3,0.1-2.6-0.1c-0.7-0.1-0.9-0.5-0.8-1.1c0-0.2,0.1-0.4,0.2-0.6
						L179.5,417.1L179.5,417.1z M180.5,416.5l-0.1,0.7c-0.1,0.2-0.1,0.4-0.2,0.6c-0.1,0.2-0.1,0.4-0.1,0.5v0.1
						c1.1,0.2,1.5,0.1,2.4,0.1l0.7-0.1c0.1,0,0.1,0.2,0.1,0.1c0,0,0-0.1-0.1-0.2l0,0c-0.1-0.2-0.6-0.7-0.9-1l-0.1-0.1
						c-0.3-0.3-0.6-0.5-0.8-0.6C181.2,416.6,180.9,416.5,180.5,416.5L180.5,416.5z M176.5,418.9L176.5,418.9
						c-0.9-0.1-1.6-0.2-2.1-0.7c-0.2,0-0.2-0.2-0.3-0.7c-0.1-0.7,0.1-1.4,0.4-2c0.3-0.6,0.8-1.1,1.1-1.5c0.4-0.4,1.1-0.2,1.5,0h0.1
						c0.4,0.1,0.8,0.5,1.1,0.9c0.3,0.5,0.5,1,0.6,1.5c0,0.2,0,0.3,0,0.5c-0.1,0.5-0.3,1-0.6,1.4c-0.4,0.4-0.8,0.7-1.3,0.8
						C176.8,418.9,176.6,418.9,176.5,418.9z M176.6,418h0.2c0.3,0,0.6-0.2,0.8-0.5c0.2-0.2,0.4-0.6,0.4-0.9v-0.2
						c-0.1-0.4-0.2-0.8-0.4-1.2c-0.1-0.2-0.4-0.4-0.6-0.5l-0.2-0.1c-0.2-0.1-0.5-0.3-0.5-0.2c-0.3,0.4-0.7,0.9-1,1.4s-0.4,1-0.3,1.5
						h-0.2c0.1,0,0.2,0.1,0.2,0.2C175.3,417.9,175.9,417.9,176.6,418L176.6,418z M174.7,417.3L174.7,417.3h0.2H174.7z M174.8,417.3
						h0.1H174.8z M163.4,430.9c0.1,0,0.1-0.1,0.2-0.1l3.6-1.1c0.2-0.2,0.5-0.4,0.8-0.5c0.5-0.3,1.1-0.5,1.4-0.6l0.6-0.2
						c0,0.5,0.1,1.5,0.1,2c-0.2,2.2-0.1,5.3,0.4,8.5c0.4,3,1.1,5.9,2,7.9c0.7,1.7,1.4,2.5,1.8,3c0.2,0.2,0.4,0.5,0.5,0.7
						c0.2,0.1,0.4,0.3,0.6,0.5c0.7,0.6,1.8,1.5,3.9,1.1c4.9-0.8,6.9-5.9,8.8-10.5l0.1-0.2c0.8-1.9,2.8-6.8,5.3-10.1
						c1.6-2.1,3.3-3.7,5-3.6c0.6,0,1.1,0.3,1.4,0.7c0.3,0.4,0.4,0.9,0.5,1.5l0.2,0.7c1.4,5.6,2.4,9.6,6.8,11.9l0.3,0.1
						c0.9,0.3,1.9,0.5,2.9,0.5s2-0.1,2.9-0.3c1.3-0.4,2.5-1.1,3.4-2c1-1,1.8-2.1,2.6-3.2c0.9-1.4,1.3-1.7,2.1-1.1
						c0.2,0.2,0.5,0.4,0.8,0.8c1,1,2.7,2.9,6.8,4.9c1.4,0.7,4.2,1.5,7.1,2.2c3,0.7,6.1,1.2,7.9,1.3c0.7,0,1,0.1,1.4,0.1l0.6,0.1
						c0.4,0,0.9,0.1,1.3,0.1c0.4,0,0.7,0,1.1,0l2.4,0.2l2,0.1c3.7,0.1,6.8,0,9.9-0.3c3.1-0.2,6.1-0.6,9.6-1.1l1-0.1l7-1.4l2.6-0.7
						c2.3-0.6,4.8-1.2,6.5-1.8l3.6-1.2c1.2-0.4,2.3-0.8,3.5-1.2c1.1-0.4,2.2-0.9,3.2-1.3c0.6-0.3,1.2-0.5,1.7-0.7l1.5-0.6
						c0.3-0.1,0.6-0.3,0.9-0.5c0.8-0.4,1.4-0.8,2.3-0.6h0.3l0.1,0.3c0.3,0.9,0.4,1.6,0.6,2.3c0.2,1.2,0.5,2.3,1.3,3.5
						c1,1.3,2.5,2.1,4.1,2.4c1.9,0.3,3.9,0.1,5.6-0.7c0.6-0.3,1.2-0.6,1.7-1c0.6-0.4,1.3-0.9,1.8-1.4c0.2-0.2,0.7-0.7,1.1-1.1
						c0.3-0.3,0.6-0.7,0.7-0.8l0.5-0.9l0.3,0.9h0.2c0.4,0.1,0.7,0.5,1.1,0.9c0.6,0.7,1.6,1.6,3,2.2c0.5,0.2,0.9,0.3,1.4,0.4
						c1.6,0.3,3.1,0,4.4-0.8s2.3-2,2.9-3.7c0.2-0.5,0.4-1.1,0.5-1.7c0.2-1.3,0.3-2.5,0.2-3.6c-0.1-1.2-0.4-2.3-0.7-3.6
						c0-0.1,0-0.1,0-0.2c0-0.3-0.3-1.3-0.7-2.2c-0.4-0.8-0.8-1.6-1-1.6c-0.1,0-0.2,0.2-0.4,0.4c-0.3,0.5-0.6,1.2-0.7,1.5
						c0,0.1-0.1,0.2-0.1,0.3c-0.5,1-1.5,3.1-1.3,3.9c0.1,0.4,0.5,1,0.9,1.7c0.5,0.8,1,1.5,1,2.1v0.3l-0.3,0.1
						c-1,0.5-2.2,0.8-3.4,0.7c-1,0-2-0.3-2.8-1c-1.4-1.2-1.3-2.4-1.1-3.7c0.1-0.6,0.1-1.3,0-2c-0.8,0-1.2,0.7-1.7,1.3
						c-0.7,1.1-1.7,2-2.5,3c-0.8,0.9-1.6,1.7-2.5,2.4c-1,0.7-2,1.3-3.5,1.6c-1.5,0.3-3,0.2-4.3-0.3c-1.4-0.5-2.5-1.3-3-2.4
						c-0.8-1.5-0.5-3.2-0.3-4.6c0.1-0.5,0.2-1,0.2-1.4c0-0.5-0.1-0.9-0.7-1c-0.3,0.2-0.8,0.5-1.3,0.7c-1.1,0.6-2.6,1.3-3.1,1.5
						c-2.5,1.2-5,2.2-7.5,3c-2.5,0.9-5.1,1.6-7.8,2.4c-7.7,2-16.5,3.4-25.3,3.8c-8.5,0.5-17,0.1-24.6-1.2c-2.8-0.5-5.5-1-8.1-1.9
						s-5-2-7.2-3.8c-2.4-1.9-2.2-2.6-2-3.4c0.1-0.2,0.1-0.5,0-0.8c-0.5,0-0.7,0.5-0.9,1l-0.2,0.5c-1.2,2.3-2.6,4.2-4.3,5.6
						c-1.8,1.4-4,2.1-6.9,1.9c-6.3-0.3-7.4-5.8-8.3-10c-0.3-1.3-0.5-2.4-0.8-3.2l-0.1-0.2c-0.4-0.7-0.9-1.1-1.5-1.3
						c-0.6-0.2-1.4,0-2.2,0.3l-0.4,0.2c-2.2,1.2-4,3.1-5.4,5.3c-1.4,2.2-2.6,4.7-3.6,7c-0.3,0.8-0.6,1.6-0.9,2.4
						c-1.1,2.9-2.2,5.9-4.2,7.3c-0.8,0.6-1.9,1-3.1,1.1c-1.1,0.1-2.2,0-3.2-0.5c-0.7-0.4-1.4-0.9-1.9-1.6c-0.6-0.8-1.2-1.7-1.6-2.5
						c-1.8-3.8-1.8-6.5-1.8-9.3c0-1,0-2.1-0.1-3.2v-1.2l0.3-0.1c0.5-0.2,1.6-1,2.6-1.9c1.4-1.2,2.9-2.6,3.2-3.1l0.3-0.4l0.5,0.5
						l0.7-0.1c0.3,0,0.3,0,0.9,0c4.3,0.4,4.7-0.2,5.1-0.9c0.1-0.2,0.2-0.3,0.4-0.5c0-0.4,0.1-0.9,0.2-1.4c0.2-1.3,0.4-2.7,0.1-3.9
						c-0.4-1.2-1.4-2.3-2.7-3.2c-1.3-0.9-2.8-1.7-3.9-2.2c-2-0.9-2.6-1.6-3-2.1c-0.1-0.1-0.2-0.2-0.3-0.2c-0.1,0.3-0.2,0.7-0.2,1.1
						c-0.1,0.8-0.1,1.6-0.1,2.1v0.4c0,0.3,0,0.4,0,0.5s-0.1,0.2-0.1,0.3c-0.1,0.1-0.1,0.2-0.2,0.5c-0.4,1.1-0.5,2.7-0.6,4.1L174,418
						c-0.1,0.8-0.1,1.3,0,1.6c0.1,0.3,0.4,0.6,0.8,1l0.2,0.2l-0.1,0.3c-0.2,0.8-1.3,2-2.7,3.1c-2.1,1.7-4.8,3.6-6.1,4.4l-0.8,0.5
						C164.4,430,163.7,430.5,163.4,430.9L163.4,430.9L163.4,430.9z M163.5,431.8L163.5,431.8L163.5,431.8l-1.3-0.3l0.1-0.4
						c0.2-0.9,1.3-1.6,2.4-2.2l0.8-0.4c1.3-0.8,3.9-2.6,6-4.3c1.1-0.9,2-1.8,2.4-2.5c-0.4-0.4-0.7-0.7-0.8-1.1
						c-0.2-0.5-0.2-1.1-0.1-2l0.1-1.3c0.1-1.5,0.3-3.2,0.7-4.4c0.1-0.4,0.2-0.5,0.3-0.6l0,0l-0.1-0.6c-0.1-0.6,0-1.5,0.1-2.3
						c0.1-0.7,0.2-1.4,0.5-1.8l0.1-0.2h0.3c0.6,0.1,0.8,0.3,1.2,0.7s0.9,1,2.7,1.8c1.2,0.5,2.7,1.3,4.1,2.3c1.4,1,2.6,2.2,3,3.6
						s0.2,2.9-0.1,4.3c-0.1,0.5-0.2,1-0.2,1.5v0.2l-0.1,0.1c-0.1,0.1-0.2,0.3-0.4,0.5c-0.6,0.9-1.1,1.8-6,1.2c-0.5,0-0.5,0-0.7,0
						l-0.6,0.1c-0.1,0-0.2,0-0.4,0h-0.1c-0.6,0.7-1.9,1.9-3.1,2.9c-1,0.8-2,1.6-2.6,1.9v0.5c0.1,1.1,0.1,2.2,0.1,3.3
						c0,2.7,0,5.3,1.7,9c0.4,0.8,0.9,1.6,1.4,2.3c0.5,0.6,1.1,1.1,1.6,1.3c0.8,0.4,1.8,0.5,2.7,0.4c1-0.1,2-0.4,2.6-0.9
						c1.8-1.3,2.8-4.2,3.9-6.9c0.3-0.9,0.6-1.7,1-2.5c1-2.3,2.2-4.9,3.7-7.2c1.5-2.3,3.4-4.3,5.7-5.6l0.4-0.2c1-0.4,2-0.6,2.8-0.4
						c0.9,0.2,1.6,0.8,2.1,1.7l0.1,0.3c0.4,0.9,0.6,2.1,0.9,3.4c0.8,3.9,1.8,9,7.4,9.3c2.7,0.1,4.7-0.5,6.4-1.8
						c1.7-1.2,2.9-3.1,4.1-5.3l0.2-0.4c0.4-0.9,0.8-2,2.2-1.5h0.1l0.1,0.1c0.4,0.8,0.3,1.2,0.2,1.7s-0.3,1,1.6,2.5
						c2.1,1.6,4.4,2.8,6.9,3.6c2.5,0.9,5.2,1.4,7.9,1.9c7.5,1.3,16,1.6,24.4,1.2c8.8-0.5,17.5-1.8,25.1-3.8c2.7-0.7,5.3-1.5,7.8-2.4
						s4.9-1.9,7.4-3c0.5-0.2,2-0.9,3.1-1.5c0.6-0.3,1.2-0.6,1.3-0.7l0.1-0.1h0.2c1.4,0,1.7,0.8,1.7,1.9c0,0.5-0.1,1-0.2,1.6
						c-0.2,1.3-0.5,2.8,0.2,4.1c0.4,0.8,1.4,1.5,2.5,1.9s2.5,0.5,3.8,0.2s2.3-0.8,3.1-1.4c0.9-0.6,1.6-1.4,2.4-2.3l2.2-2.6l0.2-0.4
						c0.6-0.9,1.4-2,2.9-1.6l0.2,0.1l0.1,0.2c0.3,1,0.2,1.8,0.1,2.7c-0.1,1.1-0.2,2.1,0.8,2.9c0.6,0.5,1.4,0.7,2.2,0.7
						c0.9,0,1.8-0.2,2.6-0.5c-0.1-0.4-0.5-0.9-0.8-1.4c-0.5-0.7-0.9-1.4-1-2c-0.2-1.1,0.9-3.4,1.4-4.4l0.1-0.1
						c0.1-0.4,0.4-1.2,0.8-1.8c0.3-0.5,0.7-0.8,1.2-0.8l0,0c0.6,0.1,1.2,1.1,1.7,2.2c0.4,1,0.8,2.1,0.8,2.5c0.3,1.3,0.6,2.4,0.7,3.6
						s0.1,2.5-0.2,3.9c-0.1,0.7-0.3,1.3-0.5,1.9c-0.7,1.8-1.8,3.2-3.2,4.1c-1.4,0.9-3.1,1.2-5,0.9c-0.5-0.1-1-0.2-1.5-0.4
						c-1.6-0.6-2.6-1.6-3.3-2.4c-0.2-0.2-0.4-0.5-0.6-0.6h-0.1c-0.1,0-0.3,0-0.4,0l-0.4,0.4c-0.5,0.5-1,1-1.2,1.2
						c-0.5,0.5-1.2,1-1.9,1.5c-0.6,0.4-1.2,0.8-1.9,1.1c-1.8,0.8-4.1,1.1-6.1,0.8c-1.9-0.3-3.6-1.2-4.7-2.8c-1-1.4-1.2-2.6-1.5-3.9
						c-0.1-0.6-0.2-1.2-0.4-1.9c-0.5,0-1,0.2-1.5,0.5c-0.3,0.1-0.6,0.3-1,0.5l-1.6,0.6c-0.6,0.2-1.1,0.5-1.7,0.7
						c-1,0.5-2.2,0.9-3.3,1.3c-1.2,0.4-2.4,0.8-3.5,1.2l-3.6,1.2c-1.7,0.6-4.3,1.2-6.6,1.8c-3.4,0.9-7.2,1.8-10.7,2.1
						c-3.5,0.5-6.5,0.9-9.6,1.1s-6.3,0.4-10,0.3l-2-0.1l-2.4-0.2c-0.3,0-0.7,0-1,0c-0.5,0-0.9,0-1.4-0.1l-0.7-0.1
						c-0.3-0.1-0.6-0.1-1.2-0.1c-1.9-0.1-5-0.6-8.1-1.3c-2.9-0.7-5.8-1.5-7.3-2.3c-4.2-2.1-6.1-4-7.1-5c-0.3-0.3-0.5-0.5-0.7-0.6
						c-0.1-0.1-0.3,0.1-0.9,0.9c-0.8,1.1-1.7,2.4-2.7,3.4c-1.1,1-2.3,1.9-3.8,2.3c-1,0.3-2.1,0.4-3.2,0.4c-1.1,0-2.2-0.2-3.2-0.5
						l-0.4-0.2c-4.8-2.4-5.8-6.7-7.2-12.5c-0.1-0.2-0.1-0.5-0.2-0.7c-0.1-0.5-0.2-0.9-0.4-1.2c-0.1-0.2-0.4-0.3-0.6-0.3
						c-1.4,0-2.9,1.3-4.3,3.2c-2.4,3.3-4.4,8-5.2,9.9l-0.1,0.2c-1.9,4.8-4,10.2-9.4,11.1c-2.5,0.4-3.7-0.6-4.6-1.3
						c-0.2-0.2-0.4-0.3-0.6-0.4l-0.1-0.1l-0.1-0.1c-0.1-0.2-0.3-0.4-0.5-0.7c-0.5-0.6-1.1-1.5-1.9-3.2c-0.9-2.1-1.6-5.1-2.1-8.2
						c-0.5-3.2-0.6-6.4-0.4-8.6v-0.6l-0.6,0.3c-0.3,0.1-0.5,0.3-0.6,0.4l-0.1,0.1l-4,1.2l-0.1,0.1L163.5,431.8L163.5,431.8z
						 M177.7,422.5L177.7,422.5L177.7,422.5z"/>
					<path class="st0" d="M237.9,401.6c0.6,0.4,0.6,0.7,1.5,1.2c1.5,0.7,4.8,1.6,5.6,2.5c0,0.4-2.7,3.5-4,5.8
						c-3.1,5.6-2.2,11,4.7,12.3c5.2,1,9.4-2.7,11.6-6.7c0.5-0.9,1.1-1.9,1.6-3c0.4-0.9,0.8-3.1,1.2-3.6c0-0.8,0.1-1.4-0.9-1.3
						c-1.7,1-2.8,7.8-11,7.7c-1.7,0-3.9-0.6-5-2c-0.2-0.7,0.2-1.4,1.1-2.3c0.3-0.3,0.5-0.6,0.8-0.8l3.3-3c0.6-1.1,1.2-1.7,1.7-3.2
						c0.3-1,1-3.1,0.8-4.3c-0.2-2-5.1-3.1-6.8-3.4l-1.4-0.9c0.2-0.5,0.8-0.7,1.3-1.1c4.6-3.4,4.3,0.9,5.7-4.1
						c0.1-0.5,0.2-0.9,0.3-1.4l0.4-1.3c0-0.1,0-0.1,0.1-0.1c-0.1-1.5,0.2-1.7-1.5-1.7c-1.8,0.2-3.3,1.2-4.3,2
						c-1.6,1.3-5.6,5.1-6.2,6.8C237.9,397.5,238,399.6,237.9,401.6L237.9,401.6z"/>
					<path class="st1" d="M238.4,401.4c0.2,0.1,0.3,0.3,0.4,0.4c0.2,0.2,0.3,0.4,0.8,0.6c0.5,0.3,1.3,0.5,2.1,0.8
						c1.5,0.5,3.1,1.1,3.6,1.8l0.1,0.1v0.2c0,0.3-0.6,1-1.3,2c-0.9,1.1-2,2.7-2.8,4c-0.8,1.4-1.3,2.7-1.5,4
						c-0.3,1.4-0.2,2.7,0.3,3.9c0.5,1.1,1.3,2.1,2.6,2.8c0.8,0.5,1.9,0.8,3.1,1c2.2,0.4,4.3-0.1,6.1-1.1c2.1-1.2,3.9-3.2,5.1-5.4
						l0.1-0.2c0.5-0.9,1-1.8,1.5-2.8c0.1-0.3,0.3-0.9,0.4-1.4c0.2-0.8,0.5-1.7,0.8-2.2v-0.1c0-0.2,0-0.4,0-0.5s-0.1-0.1-0.2-0.1
						c-0.4,0.2-0.7,0.9-1.2,1.6c-1.5,2.4-3.7,6.1-10,6.1c-1,0-2.1-0.2-3.1-0.6c-0.9-0.3-1.7-0.9-2.2-1.6l-0.1-0.1
						c-0.2-0.5-0.1-0.9,0.1-1.4c0.2-0.4,0.6-0.8,1.1-1.3l0.8-0.8l3.3-3l0.5-0.9c0.4-0.6,0.8-1.2,1.1-2.2c0.2-0.6,0.5-1.6,0.7-2.5
						c0.1-0.6,0.2-1.2,0.1-1.6c-0.1-0.6-0.8-1.1-1.7-1.6c-1.6-0.8-3.7-1.3-4.8-1.5h-0.1l-1.8-1.2l0.1-0.3c0.2-0.5,0.6-0.8,1.1-1
						l0.4-0.2c2.2-1.7,3.4-1.6,4.1-1.5c0.5,0,0.7,0,1.4-2.3l0.2-0.7c0.2-0.7,0.3-1.4,0.6-2.1v-0.4c0-0.6,0-0.7-1-0.7
						c-0.8,0.1-1.6,0.4-2.3,0.7c-0.7,0.4-1.3,0.8-1.8,1.2c-0.9,0.8-2.6,2.4-4,3.9c-1,1.1-1.8,2.1-2,2.7c-0.5,1.4-0.5,2.9-0.6,4.5
						L238.4,401.4L238.4,401.4z M238.1,402.4c-0.1-0.1-0.2-0.3-0.4-0.4l-0.2-0.1v-1.4c0-1.6,0.1-3.3,0.6-4.8c0.3-0.8,1.1-1.9,2.2-3
						c1.4-1.6,3.2-3.2,4.1-4c0.6-0.4,1.2-0.9,2-1.3s1.6-0.7,2.6-0.8h0.1c1.8,0,1.8,0.3,1.9,1.5l0.1,0.8L251,389l-0.4,1.2l-0.1,0.7
						l-0.2,0.7c-0.9,3.1-1.2,3-2.3,3c-0.6,0-1.6-0.1-3.5,1.4l-0.4,0.3c-0.2,0.1-0.4,0.2-0.5,0.4l0.9,0.6c1.1,0.2,3.3,0.7,4.9,1.5
						c1.1,0.6,2,1.3,2.1,2.2c0.1,0.5,0,1.2-0.1,1.9c-0.2,1-0.5,2-0.7,2.6c-0.4,1-0.8,1.7-1.2,2.4c-0.2,0.3-0.4,0.6-0.5,0.9
						c-0.2,0.3-2.9,2.7-3.4,3.1l-0.8,0.8c-0.4,0.4-0.8,0.8-0.9,1.1c-0.1,0.2-0.2,0.5-0.1,0.7c0.4,0.5,1.1,0.9,1.8,1.2
						c0.9,0.4,1.9,0.5,2.8,0.5c5.8,0,7.9-3.4,9.2-5.7c0.6-0.9,1-1.6,1.6-2h0.1h0.1c0.9-0.2,1.2,0.2,1.3,0.8c0,0.2,0,0.4,0,0.6v0.5
						l-0.1,0.1c-0.2,0.3-0.5,1.1-0.7,2c-0.2,0.6-0.3,1.2-0.5,1.5c-0.5,1-1,2-1.5,2.9l-0.1,0.2c-1.3,2.2-3.1,4.4-5.4,5.7
						c-1.9,1.1-4.2,1.6-6.7,1.2c-1.3-0.2-2.4-0.6-3.3-1.1c-1.4-0.8-2.4-1.9-2.9-3.2c-0.5-1.3-0.6-2.8-0.3-4.4
						c0.2-1.4,0.8-2.8,1.6-4.3c0.7-1.3,1.9-2.9,2.8-4.1c0.5-0.6,0.9-1.2,1.1-1.4c-0.6-0.4-1.8-0.9-3-1.3c-0.8-0.3-1.6-0.6-2.2-0.9
						C238.6,402.9,238.3,402.6,238.1,402.4L238.1,402.4z"/>
					<path class="st0" d="M266.4,403.7c0.6,0.2,3.3,0.9,3.3,1.7c0,1-9.2,8.5-4.3,15.5c1.1,1.3,3,2.1,4.8,2.4
						c3.3,0.6,5.3-0.2,7.4-1.7c4.2-2.9,5.8-7,7.1-11.5l0.1-0.3c0.2-1.5-0.9-1.5-1.4-0.5c-0.5,0.8-0.8,1.3-1.3,2.1
						c-0.7,1.1-2.1,2.8-3.2,3.5c-2.7,1.8-8,2.4-10.3,0.1c-0.7-1.3,0.6-2.8,2.2-4.4c0.5-0.5,1.1-0.9,1.5-1.3c2.6-2.5,2.6-5,3.4-7.6
						c0.2-1.2-0.7-2-1.9-2.7c-1.7-0.9-4.4-1.1-5.8-1.8c-0.6-0.3-0.7-0.5-0.2-1c0.6-0.6,1.8-1.3,2.3-1.6c1.9-1.2,2-0.4,3.3-0.7
						c0.4-0.1,0.1,0.2,0.4-0.4c0.8-1.5,1.2-4.6,1.4-5.1c0.2-1.4-0.1-0.9-0.5-1.5c-4.1-0.2-7.5,4.1-10.1,6.8c-1.5,1.5-2,4.1-1.9,6.4
						C262.6,402.4,264.2,403.1,266.4,403.7z"/>
					<path class="st1" d="M266.5,403.3h0.2c0.9,0.3,3.4,1,3.4,2.1c0,0.4-0.5,1-1.2,1.8c-2.2,2.6-6.9,8.2-3.3,13.4
						c0.5,0.5,1.2,1,1.9,1.4c0.8,0.4,1.8,0.7,2.7,0.9c1.6,0.3,2.8,0.2,4,0c1.1-0.3,2.1-0.9,3.1-1.5c2-1.4,3.4-3.1,4.5-5
						s1.8-4,2.4-6.2l0.1-0.3c0-0.3,0-0.5,0-0.6l0,0h-0.1c-0.1,0-0.3,0.2-0.5,0.4l-0.4,0.6c-0.3,0.5-0.5,0.9-0.9,1.5
						s-1.1,1.5-1.7,2.2c-0.5,0.6-1.1,1.1-1.6,1.4c-1.5,1-3.8,1.6-5.9,1.6c-1.9,0-3.8-0.4-5-1.6l-0.1-0.1c-0.4-0.8-0.3-1.7,0.2-2.5
						s1.2-1.6,2-2.4c0.3-0.3,0.5-0.5,0.8-0.7s0.5-0.4,0.7-0.6c2-1.9,2.4-3.8,2.9-5.8c0.1-0.5,0.2-1,0.4-1.6c0-0.4-0.1-0.8-0.4-1.2
						c-0.3-0.4-0.8-0.8-1.3-1.1c-0.9-0.5-2.1-0.8-3.2-1c-1-0.2-1.9-0.4-2.6-0.8c-0.5-0.2-0.7-0.4-0.8-0.7c-0.1-0.3,0.1-0.6,0.5-1
						c0.3-0.3,0.8-0.6,1.2-1l1.1-0.7c1.4-0.9,1.9-0.8,2.5-0.7c0.2,0,0.5,0,0.9,0l0,0l0.1-0.2c0.5-0.9,0.9-2.6,1.1-3.8
						c0.1-0.5,0.2-1,0.3-1.2c0.1-0.6,0.1-0.7,0-0.7c-0.1-0.1-0.2-0.1-0.3-0.2c-3.3,0-6.1,3-8.5,5.5l-1.1,1.1
						c-0.6,0.6-1.1,1.5-1.4,2.5c-0.3,1.1-0.5,2.4-0.5,3.6c0,1,0.4,1.6,0.9,2C264.6,402.7,265.5,403,266.5,403.3L266.5,403.3z
						 M266.4,404.2l-0.2-0.1c-1.1-0.3-2.1-0.7-2.8-1.3c-0.8-0.6-1.2-1.5-1.3-2.7c0-1.2,0.1-2.6,0.5-3.9c0.3-1.1,0.8-2.1,1.6-2.8
						l1.1-1.1c2.5-2.7,5.6-6,9.4-5.8h0.2l0.1,0.1c0.1,0.1,0.2,0.1,0.2,0.2c0.4,0.2,0.6,0.3,0.4,1.6v0.1c0,0.1-0.1,0.5-0.2,1.1
						c-0.2,1.2-0.6,3-1.2,4.1c-0.1,0.2-0.1,0.3-0.1,0.3l-0.1,0.3c-0.1,0-0.3,0-0.4,0l0,0l0,0c-0.5,0.1-0.8,0.1-1.2,0
						c-0.5,0-0.9-0.1-2,0.6l-1,0.7c-0.4,0.3-0.9,0.6-1.1,0.9c-0.1,0.1-0.2,0.1-0.2,0.1s0.1,0,0.3,0.1c0.6,0.3,1.5,0.5,2.4,0.7
						c1.2,0.3,2.5,0.6,3.4,1.1c0.6,0.4,1.2,0.8,1.6,1.3s0.6,1.2,0.5,1.9v0.1c-0.1,0.5-0.3,1-0.4,1.5c-0.5,2.1-1,4.1-3.1,6.2
						c-0.3,0.3-0.5,0.5-0.8,0.7c-0.2,0.2-0.5,0.4-0.8,0.7c-0.8,0.8-1.5,1.5-1.9,2.2c-0.3,0.6-0.5,1.1-0.2,1.6c1,0.9,2.6,1.3,4.3,1.3
						c2,0,4.1-0.6,5.4-1.5c0.4-0.3,0.9-0.7,1.4-1.3c0.6-0.7,1.3-1.5,1.7-2.1c0.4-0.5,0.6-0.9,0.9-1.4l0.4-0.6c0.3-0.4,0.6-0.7,1-0.8
						c0.2-0.1,0.4-0.1,0.6,0s0.4,0.2,0.5,0.4c0.2,0.3,0.2,0.7,0.2,1.3c0,0.1-0.1,0.2-0.1,0.3c-0.6,2.2-1.4,4.4-2.5,6.4
						s-2.6,3.8-4.8,5.3c-1.1,0.8-2.2,1.4-3.4,1.7c-1.2,0.3-2.6,0.4-4.3,0.1c-1-0.2-2-0.5-2.9-1c-0.8-0.4-1.6-1-2.2-1.6l0,0
						c-4-5.8,0.9-11.7,3.3-14.5c0.6-0.7,1-1.2,1-1.2C269.2,405.1,267.2,404.4,266.4,404.2L266.4,404.2z M273.4,394.3L273.4,394.3
						L273.4,394.3z"/>
					<path class="st0" d="M222.1,391.3c-0.2,1.4-0.6,3.5,0.2,4.5c1.1,1.2,0.4-0.9,1.9,3.2c1.7,4.8,3.4,10.8,4.7,15.7
						c0.3,1.3,1.4,8.2,1.6,8.5c0.9,0.1,0.9-0.3,1.1-1c0.2-0.6,0.3-1,0.4-1.7c1.1-4.9,0.5-7,0.2-11.2c-0.8-3.2-5.1-18.9-6.4-21.6
						C224.5,385.1,222.5,389.1,222.1,391.3z"/>
					<path class="st1" d="M222.5,391.4l-0.1,0.6c-0.2,1.2-0.4,2.9,0.2,3.6c0.2,0.3,0.3,0.3,0.4,0.3c0.4,0.1,0.5,0.1,1.6,3.1
						c0.8,2.2,1.6,4.8,2.4,7.3c0.9,2.9,1.7,5.8,2.4,8.5c0.2,0.6,0.5,2.5,0.8,4.3c0.3,1.6,0.6,3.3,0.7,3.9c0.2-0.1,0.2-0.2,0.3-0.4
						l0.3-1l0.2-0.8c0.8-3.7,0.6-5.8,0.4-8.6c-0.1-0.8-0.1-1.5-0.2-2.5c-0.5-2-2.4-8.8-4-14.2c-1-3.3-1.9-6.2-2.4-7.2
						c-0.1-0.3-0.3-0.5-0.5-0.6c-0.1-0.1-0.2,0-0.4,0c-0.2,0.1-0.4,0.3-0.6,0.6C223.3,388.9,222.7,390.3,222.5,391.4L222.5,391.4z
						 M221.6,391.8l0.1-0.6c0.2-1.2,0.8-2.8,1.6-3.7c0.3-0.4,0.6-0.7,1-0.9c0.4-0.2,0.8-0.2,1.2,0c0.3,0.2,0.6,0.5,0.8,1
						c0.5,1,1.4,4,2.4,7.3c1.6,5.5,3.5,12.3,4,14.3v0.1c0.1,0.9,0.1,1.7,0.2,2.5c0.2,2.8,0.4,5-0.4,8.9l-0.2,0.9l-0.3,1.1
						c-0.2,0.8-0.3,1.2-1.5,1.1h-0.2l-0.1-0.2c-0.2-0.3-0.5-2.3-0.9-4.4c-0.3-1.8-0.6-3.6-0.8-4.2c-0.7-2.6-1.5-5.5-2.4-8.4
						c-0.8-2.5-1.6-5.1-2.3-7.3l-0.9-2.5c-0.2,0-0.4-0.1-0.9-0.6C221.1,395.1,221.4,393.3,221.6,391.8L221.6,391.8z"/>
					<path class="st0" d="M185.2,404.7c-0.1,1,0.4,1.2,1,1.8c0.6,0.6,4.1,3.6,5.1,3.5c0.3-0.6,0.8-1.9,1-2.5
						c0.1-0.4,0.9-2.2,1.1-2.5c0.6,0.8,5.3,4.1,5.6,4.4c0.8-0.1,0.9-1,1.5-2.6c0.2-0.6,0.9-2.6,1.2-3v-1c-6.9-4.9-5.5-5.2-7.1-1.7
						c-0.3,0.7-0.8,1.6-1.1,2.3c-0.9-0.6-5.2-4-6-4.1C187,400.2,185.9,403.5,185.2,404.7z"/>
					<path class="st0" d="M208.3,418.1c-0.3,1.3,0.8,2,2.4,3.2c0.9,0.7,2.2,2.1,3.6,2.3c0.8-1.5,1.8-5.2,2.4-5.8
						c-0.2-1-0.6-1.1-1.3-1.5c-1.2-0.8-4-3.2-4.9-3.3C209.8,414.7,209,416.5,208.3,418.1z"/>
				</g>
			</g>
			<g>
				<path class="st0" d="M180.4,96.4c-0.6-3.4,2.4-8.1,3.8-10.2c2.6-4,5.1-1.9,6.7,2.5c1.8,5.1,1.7,8.1-2.3,10.3
					c-1.4,0.8-3.5,2.2-5.2,1.6C182.2,100.2,180.6,97.8,180.4,96.4z M192.7,103.2l2.9-12.9c3.9,0,6.7,0.4,10.8-0.1
					c3.7-0.4,7.6-1.4,9.9,1C215.5,96.2,200.8,104.4,192.7,103.2z M149.8,99.5c1.2-19.7-4.3-26.4-15.5-39.3l-12.4-14.7
					c-5.4-6.2-11-13.9-16-20.4c-6.3-8.2,0.7-9.4-4.9-13.3c-1.5-1-4.5-3.2-5.7-3.6c-1.3,1.7-3.7,7.5-3,9.5
					c2.1,6.9,22.9,32.8,28.1,39.2c0.9,1.2,2.1,2.5,3,3.5L136,74.9c0.9,1.2,2.1,2.4,3,3.5c4.6,5.6,7.5,10.6,9.2,17.9
					c1.4,6.3,1,5.7-2.1,9.8c-4.1,5.4-8,8.6-13.8,12.8l-11.4,8.7c-1.5,1-3.3,1.6-2.8,3.4l1.5,0.4c0.5,0,1.1-0.3,1.4-0.4
					c4.2-1.8,17.6-7.3,19.4-8.7c4.9-3.9,9.3-9.6,11.8-15.7c0.6-1.4,0.6-1.9,1.5-2.8c1.4,1.6,2.1,3.8,3.4,5.4
					c4.3,5.3,14.5,5.9,21.3,4.5c2.8-0.6,4.4-1.8,7.2-1.2c8.6,1.6,14.3,1.7,22.6-3.2c4.4-2.6,7.1-4.6,9.4-8.8
					c1.9-3.5,3.6-10.2,3.3-14.9c-1-13.4-21.8,0.7-27.1-8.9c1.7-3.8,5.4-7.5,8.8-9.5c5.9-3.5,8.8,2,11.2,5c4.9,6,13.7,8.2,18.8,2.1
					l3-4c0.1-0.1,0.4-0.4,0.4-0.6c0.6-0.6,0.1-0.3,0.8-0.8c2.1,1.8,2.7,3.9,6.6,5.3c8.3,2.9,10.7-4.2,12-10.7c0.4-1.9,0.5-4,0.1-6
					c-0.1-0.5-0.6-1.7-0.8-2.1c-1-2.1,0-1-1.6-1.7c-1.3,0.6-0.9,0.1-1.6,2.2c-0.3,0.9-0.6,1.9-0.8,2.9c-1,3.7-0.5,2.5-0.7,4.5
					c-0.4,3.3-5.4,0.5-6.8-0.5c-3.4-2.4-0.8-3.7-1.8-7.5c-2.1,0-4,3.6-5.4,5.5c-7.2,10-14.2,8.8-20.8-0.4c-7.3-10.2-17.3-0.5-21,5.3
					c-1.8,2.8-2.1,5.4-3.2,8.4c-4.4-0.6-4.7-0.4-7.1,2.7c-1.7,2.3-2.8,4.1-4.1,7.1c-2.9,6.9-1.9,11.7-2.8,19.1
					c-12.1,1-17.7-1.9-19.8-12.7c-1.8-9.2-2.7-20-3.8-29.3c-1.7-14.4-4.8-28.1-7.3-42.3c-0.6-3.1-0.5-12.1-3.7-13.1
					c-5.1,7.2-2.2,14.3-1.1,22.3c1.1,7.7,3,15.4,4.3,23.1c1.4,8,2.4,16,3.4,24.1l2.4,18.2c0.1,1.4,0.2,1.8-0.1,3.2L149.8,99.5
					L149.8,99.5z"/>
				<path class="st0" d="M368.8,80.9c2.6,1,15.1,8.5,15.7,12.7c-3.8,2.3-13.1-1.3-17.1-2.6L368.8,80.9z M351.3,83.8
					c0.9-1.8,5.3-7.2,8.6-4.9c2,1.4,5.4,6.5,4,10.1C360.9,90.2,353.1,87.7,351.3,83.8z M287.9,123.3c2.4,0.6,9.9-3,12.4-4.1
					c9.5-4.3,18.2-10.2,23.3-19.2c1.1-1.9,1.7-4.3,3-5.9c2.7,4.1,1.5,8.6,6.6,12.1c9.5,6.6,18.2,2,26.3-4.5
					c3.6-2.8,5.9-0.7,14.3,1.8c6,1.7,10.5,2.7,12.4-3.5c4.3-14.2,4.8-16.6-8-24.8c-2-1.3-10.4-6.5-11.4-7.7c0.6-1.4,1.2-1.8,1.3-3.8
					c-1.8-1.1-10-4.2-12.6-4.6c-3.9,11.3-2.3,8.4-1,11.2c-2.2,3.3-4.2,2.2-5.8,11.8c-2.3,13.6,0.4,9.7,2.4,14.3
					c-2.8,2.4-15.6,5.6-19-8.3c-3.7-14.9-7.5-77-11.6-82.2c-1.7,0.8-3.8,7.9-3.9,8.3l4.7,33.2c0.9,7.7,1.4,15.6,2.3,23.3
					c1.2,10.8,3.2,11.8-1.7,20.9c-2.2-4.6,3.9-10.2-6.7-26.8c-7-11-14.7-19.9-22.7-29.6c-3.2-3.9-13.8-16.1-14.9-20.1
					c-0.9-3.3-0.4-4-2.9-6c-1.5-1.2-3.3-3.3-5.5-3.4c-1.5,2.2-1.9,8.3-0.5,10.3c6.4,9.2,7.2,12.2,15.6,22.3
					c8.9,10.7,26.2,31.4,32.3,43.4c1.9,3.7,4.4,11.8,1.7,15.2c-6.5,8.1-15.1,13.5-23.9,20.4C291,119.8,287.9,121.3,287.9,123.3
					L287.9,123.3z"/>
				<path class="st0" d="M268.6,78.2c1-4.7,8.6-3,9.2,0.7C274.7,79.2,271.2,79,268.6,78.2z M232.3,77.6c-0.7,0.8-0.9,1-1.3,2.8
					c-0.2,1-0.3,2.2-0.4,3.2c-1.4,13.3-3.2,34,10.7,39.3c7.9,3,17.4-1.8,23.1-5c3.2-1.8,6.3-3.8,9.2-5.8c1.6-1.2,2.8-2,4.3-3.2
					c6.6-5.2,11.4-15.5,11.1-25.6c-0.1-4.1-11.2-27.6-22-13.8c-2,2.6-2.9,7.4-3.2,11.2c-1,11.2,11.7,7.1,20.2,8.8
					c0.7,3.2,1,3.7-4.6,8.3c-5.8,4.8-20.1,13.3-27.3,14.8C228.1,117.6,232.7,89.1,232.3,77.6L232.3,77.6z"/>
				<path class="st0" d="M399.5,59c2,13.4,4,28,5.2,41.5c0.6,6.1-1,9.2-0.8,14.2c1.6-0.7,1.5-0.5,2.5-4.4
					c5.3-19.8,0.3-40.2-2.5-61.5c-0.8-5.7-2.8-16.8-2.6-22l5.4,5.3c1.3,1.3,0.3,0.9,2.1,1.3c0.5-6.6-5.2-16.7-8.6-22.4
					c-1.5-2.4-1.8-4.8-4.5-5.4c-1.4,1.5-1.7,3.4-2.3,5.7c-1.2,4.6-0.6,3,0.7,6.2C394.1,17.7,399.5,59,399.5,59z"/>
				<path class="st0" d="M200.8,18.7c0.7-3.2,3.3-7.1-0.4-9.2c-3.9-1.7-5.8,2.9-5.8,6.9c1.6-0.9,1.9-1.8,4.2-1.5
					c0.4,4.4-3.1,5.5-6.3,6.9c-2.1,0.9-2,1.7-3,4c-0.8,1.8-1.4,3.2-1.7,5.2c1.9,0,19.5-7.3,23.5-8.6c4.1-1.4,8.3-2.6,12.4-3.9
					c2.9-0.9,10.1-2.7,12.4-4c2.1-1.2,9.1-10.1,2-7.9c-4.2,1.3-8.3,2.6-12.4,4C225.8,10.6,200.8,18.7,200.8,18.7z"/>
				<path class="st0" d="M155.2,19.5c3.1-0.2,5.5-0.8,8.7-0.9l6.9,0.1c2.6,0.6,0.7,0,1.6,0.8c-5.5,4.7-17.5,11.4-18.4,12.5
					c0.1,0,0.3,0,0.3,0.1c0.1,0.1,0.3,0.1,0.3,0.1c2.2,0.2,5.2-1.4,7.1-2.3c10.3-4.6,11.5-4.6,18.2-15.4c4.2-6.9-0.8-6-12.7-5.6
					c-1.7,0.1-3.6,0.1-5.3,0.2c-2.8,0.2-2.6,0-3.6,2C157.2,13.5,155.7,16.4,155.2,19.5z"/>
				<path class="st0" d="M360.2,15.1c-0.7,1.7-4.2,3.6-6.3,4.9c-1.1,0.6-2.2,1.4-3.6,2c-0.8,0.4-1.3,0.5-1.9,0.9
					c-1.7,1.1-1.1,0.4-1.5,2.3c1.6,0.2,7.8-1,9.5-1.7c2.3-0.8,5-3.9,6.5-5.6c1.4-1.6,3.5-4.7,4.6-7.1c2.7-5.7,0-5.1-5.1-5.2
					c-15.2-0.3-14.8-1-18.1,5.9C340.5,19.6,344.4,13.4,360.2,15.1z"/>
				<path class="st0" d="M376.7,38.5c-3.3,6.6-18.8,14.3-26,17.1c1,1-0.4,0.3,1.1,0.6c0.8,0.2,0.2,0.2,1.2,0.1
					c0.1,0,2.1-0.6,2.3-0.6c4.7-1.5,7.9-3.2,12.2-5.5c6.7-3.7,8.8-5.7,12.5-11.2c2.6,0.6,3.8,2.5,6.7,2.3c2.3-4.8,2-6.9-0.9-11.8
					c-1.5-2.5-5.1-6.7-8.6-7c-0.3,1.3-0.4,3.3-0.9,4.7c-0.8,2.2-3.5,3.1-2.9,8.5C373.9,38.8,374.6,37.4,376.7,38.5L376.7,38.5z"/>
				<path class="st0" d="M124.9,107.8c0.8-1.7,1.9-9.7,2.7-12.2c0.6-2.1,1.6-5,4.2-4.9c2.9,0.1,2.3,2.7,3.3,5.3
					c2.8-0.8,2.3-5.6,1.6-7.6c-0.8-2.1-3-4.9-6-3.4c-5.9,2.9-3.8,10.7-6.8,14.7c-1.4-1.8-3.1-6.3-4.8-8.7c-1.6-2.3-4.8-4.8-9.3-2.9
					c-1,1.9-0.7,6,0,8c2.8,2.2,2.7,0.4,5.6,0.4c2.8,0.8,6,10.6,8.4,12.9L124.9,107.8L124.9,107.8z"/>
				<path class="st0" d="M258.5,24c-4.1,0.4-2.7-0.5-4.8-1.7c-2,1.8-1.7,5.3-4.2,7.4c-2.8-0.1-3.2-1.7-5.9-1.3
					c-6.2,0.9-7,11.3-20.1,18.6c-1.8,1-10,3.8-10.7,4.6c4.3,2.1,16.8-3.5,22.1-9.5c3.2-3.6,5.2-8.1,8-8c4.3,0.2,5.3,4.7,10-4.4
					c3.2,0,8.6,1.6,8.4-10.1C259.1,20.6,259.8,21.8,258.5,24z"/>
				<path class="st0" d="M185.6,47.5l-9.7,7.5c-1.8,1.3-3.1,2.2-5,3.4s-4,2-5.6,3.4c0.1,0.1,0.3,0,0.3,0.1c0.1,0.1,0.3,0.1,0.4,0.1
					c3.1,0.3,9.6-4,12-5.4c8.5-5.1,5.6-4.3,10.4-8.4c0.9,0.1,10.9,3.2,7.5-6c-1.3-3.5-4.1-7.1-8.4-7.3c-0.3,0.9-0.4,1.7-0.9,2.8
					C183.5,44.3,184.9,40.8,185.6,47.5L185.6,47.5z"/>
				<path class="st0" d="M344.3,41.3c-0.1,0.1-0.2,0.1-0.2,0.2c0,0.1-0.2,0.2-0.2,0.2c-1.7,2-0.9,3.7-4.4,4.2
					c-2.5-2.5-2.1-4.1-1.1-8.3c0.4-1.8,1.8-6.2,1.3-7.9c-0.3-1.2,0.1-0.3-0.5-1c-1.3,0.7-1.5,2.1-2,4.1c-0.5,1.5-1.1,3.3-1.5,5
					c-0.8,3.3-1,8.2-0.2,11.5c0.9,4,4.7,5.7,7.1,1.8C343.7,48.9,346.1,44.3,344.3,41.3L344.3,41.3z"/>
				<path class="st0" d="M117.2,64.6c-2.2,0.4-2.3,2-4.1,2.9c-7.1,3.5-1.2-9.9-1.3-13.2c-4.2,1.8-6.2,14.1-4.5,19.4
					C109,79.2,117.5,75.6,117.2,64.6z"/>
				<path class="st0" d="M300.9,90c-7.1-2.1,3.7-12.2,0.9-15.9c-1.4,0.5-1.2,0.7-2.1,2c-1.6,2.1-3.2,6.4-3.5,9.1
					c-0.2,1.9-0.4,6.6-0.1,8.4c0.3,1.9,2.5,4,3.9,4.6c2.6,0.2,5.7-8.7,4.4-12.1C301.6,87.4,304,87.8,300.9,90z"/>
				<path class="st0" d="M171,78.7c-2,1.1-0.8,3.4-3.4,3.6c-2.3,0.2-2.4-2.2-2.2-4.1c0.2-3.3,2.7-7.7,0.9-10.2
					c-3.6,1.5-4,15-2.6,18.9c1.1,3.3,4.8,3.8,6.4,1.1C171.5,85.8,172.1,81.1,171,78.7z"/>
				<path class="st0" d="M161.9,42c2.7-1.1,5.3-0.9,4.7,2.9c-1.5,1-3.1,1.5-5.4,0.9C161,44.2,161.5,43.1,161.9,42z M159.1,50.4
					c11.1,4.3,14-14.3,4.9-12.9C159.7,38.1,158.3,47,159.1,50.4z"/>
				<path class="st0" d="M286.9,15.1c2.8-0.2,8.8-2.2,11.8-3c1.6-0.4,4.6-1,5.9-1.6c1-0.5,3.6-3.2,2.3-4.6c-1-1.1-9.4,1.9-11.5,2.4
					C290.6,9.6,287.5,9.4,286.9,15.1z"/>
				<path class="st0" d="M249.9,94.5c-3.7-3.2,1.9-8.9,0-12.3c-3.9,3.6-5.8,20.2-0.9,20.3c1.9,0,7.1-8.1,5.6-11.5
					C252.1,91.7,253.4,94.2,249.9,94.5z"/>
				<path class="st0" d="M389.3,57.5c-2.4,0.7-0.9,0.7-2.6,2.3c-6.4-0.3-0.8-7.9-0.4-12.5c-3.7,1.4-6.8,10.6-5.3,16.1
					C383.2,71.6,390.6,63.5,389.3,57.5z"/>
				<path class="st0" d="M131.8,47.1c3.1-0.5,7.4-5.3,5.6-9.1c-2.5,0.4-2.1,2.2-5.4,1.2c-1.6-3.5,2-7.9,0.7-10.8
					c-3.5,2.3-3.9,10.8-3.4,14.8C129.7,45.7,130,45.8,131.8,47.1L131.8,47.1z"/>
				<path class="st0" d="M289.5,20.9c3.1-0.3,8.2-2.1,11.4-2.9c3.3-0.9,9.6-1,7.6-5.8c-1.7-0.2-8.3,2.1-10.7,2.7
					C292.3,16.3,290.3,15.2,289.5,20.9z"/>
				<path class="st0" d="M113.8,15.8c3.1-0.7,7.5-2.9,11.2-4.1c1.9-0.6,11.5-2.4,8.5-5.3c-1.4-1.4-14.2,3.4-16.9,4.4
					C113.9,11.9,114.2,12.3,113.8,15.8z"/>
				<path class="st0" d="M364.5,116.8c-2.8-4.1,0.6-7.1,0.2-11.3c-3.4,0.9-4.5,12.1-2.4,15.4c3.7,5.9,10.2-4.3,6.7-7.6
					C366.5,115,369.5,117.5,364.5,116.8z"/>
				<path class="st0" d="M225.2,31.8c-1.6,1.2-2.3,5.7-5.5,2.9c-2.6-2.8,2.2-6.9,0.9-9.5c-2.7,1.7-5.4,10.1-3.5,14
					c1.4,2.9,4.8,1.9,6.5,0c0.7-0.9,1.3-1.8,1.7-2.9c0.2-0.4,0.5-1.5,0.5-2C225.9,32.1,225.2,31.9,225.2,31.8z"/>
				<path class="st0" d="M312.6,32.8c-1.9,0.9-1.3,1.8-2.3,3.4c-3.7,0.6-4.5-0.3-3.1-4.4c1-3.1,2.6-4.5,1.7-6.5
					c-3.2-0.2-5.8,10.1-4.2,14C306.7,44.2,314.2,40,312.6,32.8z"/>
				<path class="st0" d="M116.9,18.8l-0.2,3c3.2-0.5,7-2,10-2.9c3.3-1,8.3-1.5,7.9-5.2C132.5,12.7,118.8,17.6,116.9,18.8L116.9,18.8
					z"/>
				<path class="st0" d="M375.7,11.3c2.4,0.2,6.1-1.7,8.4-2.6c1.9-0.7,8.3-2.2,5.9-4.8c-1.3-1.5-6.6,1.2-8.4,1.8
					C377.7,7.1,375.9,6.8,375.7,11.3z"/>
				<path class="st0" d="M265.8,53.1c2.1-0.4,5.6-2.3,8.2-3.1c3.4-1,6.2-1.2,5.4-5.2c-2.1-0.6-5.9,1.3-8.3,2.3
					C267.1,48.7,266.4,48.3,265.8,53.1z"/>
				<path class="st0" d="M161.9,42c-0.4,1.1-0.9,2.2-0.6,3.9c2.3,0.6,3.9,0,5.4-0.9C167.2,41.1,164.6,41,161.9,42z"/>
			</g>
		</g>
	</g>
	<g>
		<g>
			<path class="st1" d="M71.6,556.6c-1.1,0.2-2,0.3-2.7,0.3c-3.3,0-5.8-1.4-7.6-4.2c-1.6-2.4-2.8-6-3.8-10.8
				c-1.3-6.3-1.9-13.3-1.9-20.8c0-10.3,1.5-17.3,4.5-21c1.7-2.1,4.1-3.1,7.1-3.1c0.8,0,1.7,0.1,2.7,0.4l0.8,1.8
				c-0.5-0.2-1.1-0.3-1.7-0.3c-6.5,0-9.8,7.4-9.8,22.3c0,10.6,1,19.2,3.1,25.9c1.6,5.3,4.1,8,7.5,8h0.6L71.6,556.6z"/>
			<path class="st1" d="M75.9,518.9c-2.2,7-3.3,11.4-3.3,13.3c0,2.9,0.7,4.4,2.2,4.4c1.1,0,2.2-1.3,3.5-3.9h0.2l0.3,0.3
				c-1,5.4-2.5,8.2-4.4,8.2h-0.7c-1.4,0-2.4-0.9-3-2.8c-0.1-0.8-0.2-1.4-0.2-1.9v-2.3c0-4.5,1.7-9.6,5.1-15.4H75.9z M140.9,526.2
				c0,5.5-1.9,8.3-5.8,8.3c-1.2,0-2.3-0.4-3.1-1.2c-0.1-0.1-0.7-0.8-1.9-2.2c-0.4,0.7-1,1.8-1.8,3.2c-1.4,2.2-3.4,3.3-5.8,3.3
				c-1,0-1.8-0.2-2.7-0.6c0.2,1.7,0.3,2.7,0.3,3.1c0,3.7-0.7,6.4-2.1,8.2c-2.8,3.6-6.9,7-12.1,10.1c-6,3.6-11.6,5.3-16.7,5.3
				c-5,0-9-1.7-12-5.1c-2.7-3.1-3.9-6.7-3.7-10.9c0.3-4,0.8-7.4,1.7-10c0.3-0.8,1-2.3,2.1-4.5c0.3-0.6,0.6-1,1-1.1
				c0.3-0.1,0.5,0,0.5,0.5c0,0.4-0.1,0.8-0.3,1.4c-1.8,4.3-2.7,8.3-2.7,11.8c0,3.7,1.5,6.7,4.4,9.2c2.6,2.1,5.4,3.2,8.3,3.3
				c3.6,0.1,7.9-1,12.9-3.1c6.2-2.7,11.9-6.7,17.1-12c-0.1-1.9-0.7-4.3-1.9-7.1c-0.6-1.5-1.3-3.1-1.9-4.6c0-0.3,0-0.7,0.1-1.2
				c0.2-0.8,0.3-1.8,0.4-3c0-0.2,0.1-0.3,0.3-0.3c0.2-0.1,0.4,0,0.5,0.1c0.5,0.8,1.2,2.1,2.2,3.9c1.5,0.7,3,1,4.3,1
				c3.1,0,5.5-2,7.2-6c1.1-2.5,1.9-3.8,2.5-3.9c0.1,0,0.1,0,0.2,0c0.2,0,0.2,0.1,0.2,0.4c0-0.4-0.3,1-0.9,4.3c0.8,1,1.3,1.6,1.6,1.7
				c0.5,0.4,1.4,0.6,2.4,0.6c1.9,0,2.8-0.3,2.8-1c0-0.3-0.2-0.7-0.5-1.3c-0.3-0.6-0.5-1-0.5-1.4c0.1-0.8,0.6-2.2,1.4-4.2
				c0.1-0.1,0.2-0.2,0.3-0.2c0.3,0,0.6,0.6,0.9,1.8C140.8,523.9,140.9,525,140.9,526.2z M81.9,504.2c-1,3.2-1.5,5.2-1.5,6.1
				c0,1.3,0.3,2,1,2c0.5,0,1-0.6,1.6-1.8h0.1l0.1,0.2c-0.5,2.5-1.1,3.8-2,3.8h-0.3c-0.6,0-1.1-0.4-1.4-1.3c-0.1-0.4-0.1-0.6-0.1-0.9
				v-1c0-2.1,0.8-4.4,2.3-7.1H81.9z M98.3,518.2c0.6,0,1.3,0.6,2.1,1.9c0.1,0.1,0.1,0.3,0.1,0.5v0.2c-0.2,1.3-0.5,1.9-0.9,1.9
				c-0.1,0-0.5-0.4-1.4-1.3l-0.5-0.2c-1,0-1.9,2.8-2.8,8.3c-0.6,1.7-1.1,2.6-1.4,2.6c-0.2,0-0.5-0.8-0.7-2.5c-1-2.9-1.8-4.8-2.6-5.6
				h-0.3l-0.5,0.4H89c-0.7,0-1.5-0.7-2.4-2.1v-0.2c0.7-1.5,1.3-2.4,1.7-2.7h0.2c2.3,0,4.1,2.7,5.3,8.1v0.1H94
				C95,521.4,96.5,518.2,98.3,518.2z M107.1,522.1c-1,3.2-1.5,5.2-1.5,6.1c0,1.3,0.3,2,1,2c0.5,0,1-0.6,1.6-1.8h0.1l0.1,0.2
				c-0.5,2.5-1.1,3.8-2,3.8h-0.3c-0.6,0-1.1-0.4-1.4-1.3c-0.1-0.4-0.1-0.6-0.1-0.9v-1c0-2.1,0.8-4.4,2.3-7.1H107.1z M140.3,541.1
				L140.3,541.1c0.4,0.2,0.6,0.6,0.6,1v0.7c-0.4,2.2-0.9,3.3-1.7,3.3h-0.4c-0.4,0-1.1-0.2-2-0.5c-1,1.1-2,1.6-3,1.6h-0.2
				c-1.3-0.2-2.1-0.3-2.3-0.3c-2.2,0-5,1.8-8.1,5.3c-1.8,1.7-3.3,2.6-4.5,2.6c0,0.1-0.3,0.2-0.9,0.3l-0.1-0.2c1.8-1,3.5-2.2,5-3.5
				c3.4-3.9,5.5-6,6.3-6.1c0.9-0.6,2-0.9,3.1-0.9l2.3,0.5h0.4c0.8,0,1.6-0.9,2.5-2.6l0.2-0.2h0.2c0.1,0,0.2,0.1,0.2,0.2v0.1
				c0,0.2-0.1,0.6-0.4,1.2c0.3,0.2,0.7,0.2,1.4,0.2h0.8l-0.3-1.2C139.5,542.2,139.8,541.7,140.3,541.1z M124.7,494.3h0.2
				c3.3,1.9,5,4.6,5,8v0.5c0,1.8-1,4.5-2.9,8.2l-0.2,1.2c0,1.5,0.5,2.2,1.5,2.2c0.7,0,1.5-0.7,2.3-2h0.3c-0.7,2.8-1.7,4.3-3,4.3
				h-0.6c-1.4-0.2-2.1-1.1-2.1-2.9v-0.3c0-1.5,0.9-4,2.7-7.5c0.2-0.9,0.3-1.5,0.3-1.9v-0.6c0-2.4-1.7-4.8-5-7.2v-0.1
				C123.7,495.3,124.2,494.7,124.7,494.3z"/>
			<path class="st1" d="M155.9,529.5c0.1,1.3,0.2,2.5,0.2,3.8c0,4.3-0.5,7.4-1.5,9.2c-0.4,0.7-0.7,1.1-0.9,1.1
				c-0.3,0-0.3-0.8-0.1-2.5c0.3-2.1,0.3-4.3,0-6.5c-0.9-7.4-2.2-18.5-3.9-33.3c-0.2-2.7-0.6-6.6-1-11.7c-0.1-0.3-0.4-1-1-2.3
				c-0.2-0.3,0.3-1.9,1.2-4.9c0.1-0.2,0.1-0.3,0.2-0.3c0.3,0,0.6,0.6,1.1,1.7c0.8,1.7,1.6,3.4,2.4,5.1c1.2,2.6,1.9,4.3,1.9,4.9
				c0,0.2-0.1,0.3-0.2,0.3c-0.1,0-0.3-0.1-0.5-0.2c-0.6-0.5-1.3-1.1-2.1-1.9c-0.1,0.7,0.5,5.5,1.6,14.2
				C154.6,516.7,155.5,524.4,155.9,529.5z"/>
			<path class="st1" d="M203.2,531.8c0,0.6-0.1,1.5-0.3,2.5c-0.3,1.2-0.6,1.8-0.9,1.8c-0.2,0-0.4-0.2-0.6-0.7c-1-1.9-3-2.8-5.8-2.8
				c-2.9,0-6.3,1.6-10.2,4.7c-1.9,1.5-6.2,5.6-12.9,12.3c-3.6,3.6-6.6,5.4-8.7,5.5c-2.1,0-3.9-0.7-5.4-2.3c-1.5-1.6-2.2-3.5-2.2-5.6
				c0-4.6,1.6-9.7,4.7-15.3c0.4-0.7,0.8-1,1.2-1c0.1,0,0.2,0.1,0.2,0.3c0,0.3-0.2,0.8-0.5,1.5c-2.8,5.6-4.2,10.3-3.9,14.1
				c0.2,2.8,1.3,4.2,3.3,4.2c3,0,6.7-2.1,11-6.2c3.9-3.8,7.8-7.6,11.6-11.5c4.8-4.1,9.3-6.2,13.4-6.2c1.8,0,3.3,0.4,4.4,1.3
				C202.6,529.4,203.2,530.5,203.2,531.8z M171,506.8h0.2c3.3,1.9,5,4.6,5,8v0.5c0,1.8-1,4.5-2.9,8.2l-0.2,1.2
				c0,1.5,0.5,2.2,1.5,2.2c0.7,0,1.5-0.7,2.3-2h0.3c-0.7,2.8-1.7,4.3-3,4.3h-0.6c-1.4-0.2-2.1-1.1-2.1-2.9v-0.3c0-1.5,0.9-4,2.7-7.5
				c0.2-0.9,0.3-1.5,0.3-1.9V516c0-2.4-1.7-4.8-5-7.2v-0.1C170.1,507.9,170.5,507.3,171,506.8z M192.5,540c-1,3.2-1.5,5.2-1.5,6.1
				c0,1.3,0.3,2,1,2c0.5,0,1-0.6,1.6-1.8h0.1l0.1,0.2c-0.5,2.5-1.1,3.8-2,3.8h-0.3c-0.6,0-1.1-0.4-1.4-1.3c-0.1-0.4-0.1-0.6-0.1-0.9
				v-1c0-2.1,0.8-4.4,2.3-7.1H192.5z"/>
			<path class="st1" d="M246.9,542c-2.4,0-4.6-1.1-6.6-3.4c-1.6-1.8-3.1-5.8-4.6-12.1c-0.4,1.8-1,3.2-1.7,4.3
				c-1.9,2.8-5.1,5.9-9.7,9.2c-5.3,3.9-9.9,5.8-13.6,5.8c-3.9,0-5.9-2.9-5.9-8.7c0-4.6,1.7-9.8,5.2-15.6c0.7-1.1,1.2-1.7,1.5-1.7
				c0.2,0,0.2,0.1,0.2,0.3c0,0.5-0.2,1.1-0.7,2c-3.3,6.4-4.9,11-4.7,14c0.2,2.8,1.8,4.2,5,4.2c0.7,0,2.3-0.5,4.7-1.4
				c3-1.2,5.7-2.6,8.1-4.3c2-1.4,3.4-2.6,4.3-3.4c2.9-2.6,5.1-5.3,6.5-8c-0.2-0.8-0.4-2-0.7-3.6c-0.1-0.6-0.9-3.1-2.4-7.7
				c-1.2-3.3-2.4-6.9-3.6-10.8l0.7-4.6c0.1-0.2,0.2-0.2,0.3-0.2c0.9,0,2.8,4.7,5.8,14c1.1,3.4,2.3,8.3,3.4,14.7
				c0.7,3.8,1.9,6.7,3.5,8.7c1.4,1.8,3,2.7,4.7,2.7V542z M219.5,513.8c-1,3.2-1.5,5.2-1.5,6.1c0,1.3,0.3,2,1,2c0.5,0,1-0.6,1.6-1.8
				h0.1l0.1,0.2c-0.5,2.5-1.1,3.8-2,3.8h-0.3c-0.6,0-1.1-0.4-1.4-1.3c-0.1-0.4-0.1-0.6-0.1-0.9v-1c0-2.1,0.8-4.4,2.3-7.1H219.5z
				 M230.9,537.7c-1,3.2-1.5,5.2-1.5,6.1c0,1.3,0.3,2,1,2c0.5,0,1-0.6,1.6-1.8h0.1l0.1,0.2c-0.5,2.5-1.1,3.8-2,3.8h-0.3
				c-0.6,0-1.1-0.4-1.4-1.3c-0.1-0.4-0.1-0.6-0.1-0.9v-1c0-2.1,0.8-4.4,2.3-7.1H230.9z M233.4,480c-1,3.2-1.5,5.2-1.5,6.1
				c0,1.3,0.3,2,1,2c0.5,0,1-0.6,1.6-1.8h0.1l0.1,0.2c-0.5,2.5-1.1,3.8-2,3.8h-0.3c-0.6,0-1.1-0.4-1.4-1.3c-0.1-0.4-0.1-0.6-0.1-0.9
				v-1c0-2.1,0.8-4.4,2.3-7.1H233.4z M235.8,539.1c2.3,0,3.5,0.6,3.5,1.8c0,1.2-1.8,3.5-5.4,6.9c-0.5,0.6-0.8,1.2-0.8,1.7v0.1
				c0,0.9,0.8,1.3,2.4,1.3h0.6c0.1,0,0.1,0,0.1,0.1l0.2-0.1h0.7c1.5,0,3.8-0.4,6.7-1.2l0.1,0.2c-2.4,2.3-5,3.4-7.9,3.4h-1.3
				c-1.9-0.4-2.8-1.2-2.8-2.4v-0.8c0-1.7,1.3-3.7,3.9-6.1l1.5-1.6c-0.3-0.5-1.4-0.8-3.2-0.8c-0.5,0-1.1,0.2-2,0.5
				c-0.1-0.2-0.1-0.3-0.1-0.3c0.7-1.7,1.5-2.5,2.3-2.5C234.3,539.2,234.8,539.1,235.8,539.1z M245.1,491.1c0.7,0,1.4,0.7,2.2,2.1
				c0.1,0.1,0.1,0.3,0.1,0.6v0.2c-0.3,1.4-0.6,2.1-0.9,2.1c-0.1,0-0.6-0.5-1.5-1.4l-0.6-0.2c-1,0-2.1,3-3.1,9.1
				c-0.7,1.9-1.2,2.8-1.5,2.8c-0.2,0-0.5-0.9-0.7-2.7c-1.1-3.1-2-5.2-2.8-6.1h-0.4l-0.6,0.5h-0.3c-0.8,0-1.6-0.7-2.6-2.2v-0.2
				c0.8-1.7,1.4-2.6,1.9-2.9h0.2c2.6,0,4.5,2.9,5.8,8.8v0.1h0.1C241.5,494.6,243,491.1,245.1,491.1z M244.5,510.5
				c-1,3.2-1.5,5.2-1.5,6.1c0,1.3,0.3,2,1,2c0.5,0,1-0.6,1.6-1.8h0.1l0.1,0.2c-0.5,2.5-1.1,3.8-2,3.8h-0.3c-0.6,0-1.1-0.4-1.4-1.3
				c-0.1-0.4-0.1-0.6-0.1-0.9v-1c0-2.1,0.8-4.4,2.3-7.1H244.5z"/>
			<path class="st1" d="M269.1,533.7c0,1.3-0.3,2.6-0.9,3.8c-0.7,1.3-1.4,1.9-2.3,1.9c-1,0-2.5-0.5-4.4-1.4
				c-2.2-1.1-3.9-2.4-4.9-3.8c-1.5,2.5-2.5,4.1-3,4.6c-1.9,2.2-4.1,3.3-6.7,3.3v-5.4c1.8,0,3.4-0.3,5-1c1-0.4,2.2-1.7,3.6-3.8
				c1.4-2,2.2-3,2.5-3c0.1,0,0.2,0.1,0.3,0.3c1.8-3.3,3.7-5,5.7-5c1.7,0,3,1,3.9,3.1C268.7,528.9,269.1,531.1,269.1,533.7z
				 M268.4,543.9h0.4c0.5,0,1,0.5,1.6,1.6c0.1,0.6,0.2,1,0.2,1.2c0,1.3-0.4,2.2-1.1,2.7h-0.4c-0.7,0-1.7-0.6-3.1-1.9
				c-0.4,1.1-0.9,2.1-1.6,3.1c-2.4,2.3-4.8,4-7.3,4.9c-4.4,1-7,1.6-7.9,1.7V557c8.3-3.5,13.2-6,14.6-7.6c0.6-0.6,1.2-1.6,1.8-2.8
				c0.4-0.6,0.6-0.9,0.7-0.9h0.2l0.2,0.1C267.2,544.5,267.8,543.9,268.4,543.9z M252.3,520.7c-1,3.2-1.5,5.2-1.5,6.1
				c0,1.3,0.3,2,1,2c0.5,0,1-0.6,1.6-1.8h0.1l0.1,0.2c-0.5,2.5-1.1,3.8-2,3.8h-0.3c-0.6,0-1.1-0.4-1.4-1.3c-0.1-0.4-0.1-0.6-0.1-0.9
				v-1c0-2.1,0.8-4.4,2.3-7.1H252.3z M261.2,504.3c-1,3.2-1.5,5.2-1.5,6.1c0,1.3,0.3,2,1,2c0.5,0,1-0.6,1.6-1.8h0.1l0.1,0.2
				c-0.5,2.5-1.1,3.8-2,3.8h-0.3c-0.6,0-1.1-0.4-1.4-1.3c-0.1-0.4-0.1-0.6-0.1-0.9v-1c0-2.1,0.8-4.4,2.3-7.1H261.2z M265.2,533.2
				c0-0.9-0.3-1.8-0.8-2.5c-0.5-0.8-1-1.1-1.6-1.1c-1.1,0-1.9,0.3-2.6,0.9c1.2,1.1,1.8,1.6,2,1.7C263,532.7,264,533,265.2,533.2z
				 M267.9,546.4c1,0.8,1.7,1.2,2.1,1.2v-0.3c-0.3-0.9-0.7-1.3-1.2-1.3h-0.1C268.4,546,268.1,546.1,267.9,546.4z"/>
			<path class="st1" d="M286.1,532.8c0,10.6-1.5,17.6-4.5,21.1c-1.8,2.1-4.2,3.1-7.1,3.1c-0.9,0-1.7-0.1-2.6-0.4l-0.9-1.7
				c0.4,0.2,1,0.2,1.6,0.2c6.5,0,9.8-7.4,9.8-22.3c0-10.7-1-19.3-3.1-25.8c-0.8-2.5-2-4.6-3.5-6.2c-1.1-1.2-2.4-1.8-3.9-1.8
				c-0.3,0-0.5,0-0.7,0.1l-1.2-1.7c1.2-0.2,2.1-0.2,2.7-0.2c3.3,0,5.8,1.4,7.7,4.1c1.6,2.4,2.9,6,3.8,10.9
				C285.5,518.4,286.1,525.3,286.1,532.8z"/>
			<path class="st1" d="M304.4,524.9c-2.2,7-3.3,11.4-3.3,13.3c0,2.9,0.7,4.4,2.2,4.4c1.1,0,2.2-1.3,3.5-3.9h0.2l0.3,0.3
				c-1,5.4-2.5,8.2-4.4,8.2h-0.7c-1.4,0-2.4-0.9-3-2.8c-0.1-0.8-0.2-1.4-0.2-1.9v-2.3c0-4.5,1.7-9.6,5.1-15.4H304.4z M353.7,542
				c-1.2,0.1-3.7,0.5-7.5,1.1c-1.7,0.3-4.1,0.8-7.2,1.4c1.2,0.3,3.4,1.3,6.7,2.9c1.7,0.5,2.8,1.2,3.3,2c0.3,0.6,0.5,1.6,0.5,3
				c0,1.3-0.5,3-1.4,5.3c-0.7,1.7-4.9,4.5-12.5,8.2c-7.9,3.9-14,5.9-18.3,5.9c-2.9,0-5.6-0.8-8.3-2.4c-4.5-2.7-6.8-7.3-6.8-13.7
				c0-5.9,1.4-11.4,4.2-16.4c0.4-0.6,0.6-1,0.7-1c0.2,0,0.2,0.5-0.1,1.6c-0.5,1.8-1.1,3.6-1.6,5.3c-0.9,3.3-1.4,6-1.4,8
				c0,4,1.3,7.2,4,9.6c2.5,2.3,5.8,3.4,9.8,3.4c3.7,0,8.6-1.3,14.7-3.9c3.4-1.4,6.7-3.1,9.8-5c2.8-1.7,4.2-2.7,4.2-3
				c0-0.8-1.6-2-4.9-3.6c-5.1-1.3-7.8-2.1-8.4-2.3c-1.4-0.6-2.2-1.3-2.3-2.3c0-0.2,0.2-0.9,0.5-2.2c0.4-1.4,0.8-2.3,1-2.6
				c1.6-1.1,5.1-2,10.5-2.8c3.2-0.9,6.7-1.7,10.5-2.2V542z M316.2,575c-1,3.2-1.5,5.2-1.5,6.1c0,1.3,0.3,2,1,2c0.5,0,1-0.6,1.6-1.8
				h0.1l0.1,0.2c-0.5,2.5-1.1,3.8-2,3.8h-0.3c-0.6,0-1.1-0.4-1.4-1.3c-0.1-0.4-0.1-0.6-0.1-0.9v-1c0-2.1,0.8-4.4,2.3-7.1H316.2z
				 M335.5,514.8c0.6,0,1.3,0.6,1.9,1.7v0.2c0,0.7-0.3,1.2-0.8,1.7h-0.1c-0.8-0.7-1.3-1.1-1.4-1.1h-0.6c-0.6,0-1.4,2.2-2.4,6.7
				c-1.1,2.2-2.1,3.7-2.9,4.4c-2.9,2.3-5.6,3.8-8.1,4.5c-3.4,1.1-5.2,1.7-5.5,1.7l-0.1-0.2c0.5-0.4,2.6-1.5,6.2-3.3
				c3.6-1.9,6.3-3.5,8-4.8c0-0.1,0.3-0.4,1-1c0-1.3-0.9-3.3-2.6-6h-0.6c0,0.2-0.2,0.3-0.6,0.3c-0.6,0-1.3-0.5-2.1-1.5V518
				c0.3-0.9,0.8-1.6,1.4-2.1h0.4c2,0,3.5,2,4.6,6v0.3h0.1C332.5,517.3,333.8,514.8,335.5,514.8z M337.1,579.7c0,0.6-0.2,1.4-0.5,2.3
				c-0.4,1.1-0.8,1.6-1.3,1.6c-0.2,0-1.2-0.5-2.8-1.5c-1.8-1-2.7-1.8-2.7-2.2c0-0.5,0.6-2.1,1.9-4.8c0.8,0.8,2,1.7,3.7,2.6
				C336.6,578.4,337.1,579.1,337.1,579.7z M344.9,577.4c0,0.4-0.2,1.1-0.5,2.1c-0.4,1.2-0.9,2.1-1.4,2.6c-3.4-1.9-5.1-3.1-5.1-3.5
				c0-0.2,0.3-0.9,0.8-2.2c0.6-1.4,1-2.1,1.2-2.1C343.2,575.9,344.9,576.9,344.9,577.4z M347.2,562.8c-1,3.2-1.5,5.2-1.5,6.1
				c0,1.3,0.3,2,1,2c0.5,0,1-0.6,1.6-1.8h0.1l0.1,0.2c-0.5,2.5-1.1,3.8-2,3.8h-0.3c-0.6,0-1.1-0.4-1.4-1.3c-0.1-0.4-0.1-0.6-0.1-0.9
				v-1c0-2.1,0.8-4.4,2.3-7.1H347.2z"/>
			<path class="st1" d="M361.5,492c0.2,0,0.2,0.1,0.2,0.3c0,1-0.3,1.9-1,2.6c-0.6,0.6-2,1.5-4.2,2.6c-2.4,1.2-4.4,2.5-6,3.8
				c-0.4,0.3-0.8,0.5-1,0.5c-0.2,0-0.3-0.1-0.3-0.3c0-0.3,0.1-0.6,0.4-1.1c0.3-0.5,0.6-0.9,0.9-1.4c0.5-0.5,1.2-1.1,2.3-1.6
				c-0.7-0.1-1.4-0.4-2.1-1c-0.7-0.6-1.1-1.3-1.1-1.9c0-1.1,0.8-2.6,2.4-4.4c1.6-1.8,3-2.7,4.1-2.7c1.1,0,1.7,0.7,1.7,2
				c0,0.3-0.1,0.7-0.4,1.4c-0.3,0.9-0.7,1.3-1,1.3c-0.2-0.2-0.5-0.6-0.9-1.2c-0.2-0.4-0.5-0.5-1-0.5c-0.3,0.1-0.6,0.2-0.9,0.3
				c-0.7,0.4-1.3,1-1.9,1.8c1.5,1.5,2.8,2.3,3.9,2.3C356.4,494.8,358.3,493.8,361.5,492z M365.8,529.4c0.4,2.7-0.5,5.3-2.7,7.9
				c-0.9,1-2.2,2.1-4,3.1c-2.1,1.2-3.9,1.7-5.5,1.7v-5.4c2.3,0,4.7-0.7,7.3-2.1c2.3-1.3,3.3-2.1,3.1-2.6c-0.4-0.9-1.8-2.8-4.3-5.6
				c-2.3-2.7-4-5.4-4.9-8.1c-0.6,0-0.8-0.1-0.7-0.4c0.1-1,0.2-2.3,0.4-3.9c0.2-0.8,0.4-1,0.8-0.7c1.3,0.9,2.9,2.1,4.8,3.4
				c0.6,0.5,1,1,1,1.3c0,0.3-0.2,0.4-0.7,0.4c-0.7,0-1.4-0.1-1.9-0.2c0.2,0.7,1.5,2.3,3.8,5C364.4,525.5,365.5,527.6,365.8,529.4z"
				/>
			<path class="st1" d="M390.8,542c-2.3,0-4.5-1.1-6.5-3.4c-1.5-1.7-2.6-3.5-3.1-5.4c-0.7-2.5-1.5-7.1-2.2-14
				c-0.8-7.7-1.7-14.9-2.7-21.6c-0.3-2-0.9-4.6-2-7.9c-0.9-3-1.4-4.6-1.4-4.8c0.4-1.2,0.8-2.8,1.2-4.7c0.1-0.1,0.2-0.2,0.3-0.2
				c0.6,0,1.5,1.9,2.7,5.8c1.1,3.6,1.9,7.1,2.4,10.5c0.9,5.9,1.7,12,2.2,18.2c0.3,3.4,0.5,6.8,0.8,10.1c0.5,3.9,1.7,7,3.6,9.2
				c1.5,1.7,3,2.6,4.5,2.6V542z M376.5,529c-1,3.2-1.5,5.2-1.5,6.1c0,1.3,0.3,2,1,2c0.5,0,1-0.6,1.6-1.8h0.1l0.1,0.2
				c-0.5,2.5-1.1,3.8-2,3.8h-0.3c-0.6,0-1.1-0.4-1.4-1.3c-0.1-0.4-0.1-0.6-0.1-0.9v-1c0-2.1,0.8-4.4,2.3-7.1H376.5z M386.5,501.3
				c-1,3.2-1.5,5.2-1.5,6.1c0,1.3,0.3,2,1,2c0.5,0,1-0.6,1.6-1.8h0.1l0.1,0.2c-0.5,2.5-1.1,3.8-2,3.8h-0.3c-0.6,0-1.1-0.4-1.4-1.3
				c-0.1-0.4-0.1-0.6-0.1-0.9v-1c0-2.1,0.8-4.4,2.3-7.1H386.5z"/>
			<path class="st1" d="M402.5,498.3c0.2,1.1,0,2-0.5,2.5c-0.5,0.6-1.1,0.9-1.6,0.9c-0.6,0-1.2-0.6-1.9-1.8
				c-0.2,1.7-0.9,2.5-2.2,2.5c-0.7,0-1.2-0.3-1.6-1c-0.5-0.8-0.7-2.9-0.8-6.3c0-0.7,0.1-1.1,0.3-1.1c0.3,0,0.6,0.3,0.7,1
				c0.3,1.2,0.4,2.5,0.3,3.9c0,0.2,0.1,0.4,0.4,0.7s0.5,0.4,0.7,0.4c1,0,1.5-0.3,1.5-1c0-0.7-0.1-1.5-0.3-2.4
				c-0.2-1-0.3-1.5-0.3-1.6c-0.1-0.9,0.1-1.4,0.6-1.4c0.3,0,0.5,0.3,0.5,0.9c0,0.3,0.1,0.8,0.2,1.6c0.4,0.9,0.6,1.5,0.9,1.8
				c0.4,0.6,0.8,1,1.2,1.1c0.4,0.1,0.7,0,0.9-0.3c-0.3-0.7-0.8-2-1.5-3.8c-0.1-0.3,0-0.7,0.2-1.2c0.2-0.5,0.3-0.8,0.5-0.8
				c0.3,0,0.5,0.4,0.6,1.3C401.5,495.3,402,496.5,402.5,498.3z"/>
			<path class="st1" d="M405.6,542c-0.8,0-1.8-0.3-3-0.9c-1.4-0.7-2.5-1.6-3.2-2.6c-0.5-0.8-0.8-1.8-0.7-3.1
				c-1.1,2.3-2.1,3.8-2.7,4.5c-1.4,1.4-3.1,2.1-5.1,2.1v-5.4c2.4,0,4.2-0.4,5.4-1.2c0.3-0.2,0.7-0.8,1.2-1.7c0.5-1.1,0.9-1.7,1-1.8
				c1.3-1.7,1.9-2,1.9-1c0,0.4-0.1,0.8-0.3,1.4c0.1,0.4,0.3,0.8,0.6,1.3c0.3,0.5,1,1.1,2.2,1.9c1.2,0.7,2.1,1.1,2.7,1.1V542z
				 M399.7,517.6c0,1.8-0.5,3.3-1.5,4.6c-1.5-0.8-3-1.6-4.6-2.4c-0.7-0.4-1.1-0.9-1.1-1.3c0,0.2,0.5-1.4,1.4-4.8
				c0.7,0.5,1.9,1.3,3.8,2.2C399,516.5,399.7,517.1,399.7,517.6z M399,543.1c-1.2,3.9-1.9,6.5-1.9,7.6c0,1.7,0.4,2.5,1.2,2.5
				c0.6,0,1.3-0.7,2-2.2h0.1l0.2,0.2c-0.6,3.1-1.4,4.6-2.5,4.6h-0.4c-0.8,0-1.4-0.5-1.7-1.6c-0.1-0.4-0.1-0.8-0.1-1v-1.3
				c0-2.6,1-5.5,2.9-8.8H399z"/>
			<path class="st1" d="M442.4,572.2l-0.2,2.1c-2.1,1-5.6,2.7-10.3,5c-3.2,1.6-7.6,4-13.2,7.2l0.2-2.1c2.7-1.5,7-3.9,13.2-7.2
				C434.5,576,437.9,574.3,442.4,572.2z"/>
			<path class="st1" d="M445.4,525.2c0.2,0,0,0.9-0.5,2.5c-0.5,1.7-0.9,2.5-1.2,2.4c-1.9-0.1-5.8,1.3-11.8,4.3
				c-7,3.5-12.9,5.7-17.8,6.7c0.1,1-0.1,1.9-0.6,2.9c-0.2,0.4-0.4,0.6-0.5,0.6c-0.4,0-0.6-0.4-0.5-1.3c0-0.6-0.1-1.2-0.3-1.9
				c-2.2,0.4-4.4,0.5-6.7,0.5v-5.4c1.3,0,2.9-0.1,4.8-0.3c-1.5-3.6-2.3-5.9-2.3-7c0-2.7,0.9-5,2.6-7c1.7-2,3.8-3,6.4-3.2
				c1.5-0.1,5.5,0.7,11.9,2.5C436.1,523.6,441.6,524.8,445.4,525.2z M434.3,528.7c-1.4-0.2-4.2-0.9-8.5-2.2c-3.7-1.2-7-1.8-9.6-1.8
				c-0.8,0-1.5,0-2.3,0.1c-0.8,0.1-1.6,0.6-2.5,1.5c-0.9,0.9-1.4,1.7-1.4,2.4c0,0.2,0,0.3,0.1,0.4c0.8,1.4,1.8,3.6,3.2,6.8
				C420,534.7,427.1,532.3,434.3,528.7z M417.6,544.9c-1,3.2-1.5,5.2-1.5,6.1c0,1.3,0.3,2,1,2c0.5,0,1-0.6,1.6-1.8h0.1l0.1,0.2
				c-0.5,2.5-1.1,3.8-2,3.8h-0.3c-0.6,0-1.1-0.4-1.4-1.3c-0.1-0.4-0.1-0.6-0.1-0.9v-1c0-2.1,0.8-4.4,2.3-7.1H417.6z M427.6,504.2
				c-1,3.2-1.5,5.2-1.5,6.1c0,1.3,0.3,2,1,2c0.5,0,1-0.6,1.6-1.8h0.1l0.1,0.2c-0.5,2.5-1.1,3.8-2,3.8h-0.3c-0.6,0-1.1-0.4-1.4-1.3
				c-0.1-0.4-0.1-0.6-0.1-0.9v-1c0-2.1,0.8-4.4,2.3-7.1H427.6z M430.3,540.8c2.3,0,3.5,0.6,3.5,1.8c0,1.2-1.8,3.5-5.4,6.9
				c-0.5,0.6-0.8,1.2-0.8,1.7v0.1c0,0.9,0.8,1.3,2.4,1.3h0.6c0.1,0,0.1,0,0.1,0.1l0.2-0.1h0.7c1.5,0,3.8-0.4,6.7-1.2l0.1,0.2
				c-2.4,2.3-5,3.4-7.9,3.4h-1.3c-1.9-0.4-2.8-1.2-2.8-2.4v-0.8c0-1.7,1.3-3.7,3.9-6.1l1.5-1.6c-0.3-0.5-1.4-0.8-3.2-0.8
				c-0.5,0-1.1,0.2-2,0.5c-0.1-0.2-0.1-0.3-0.1-0.3c0.7-1.7,1.5-2.5,2.3-2.5C428.8,540.9,429.3,540.8,430.3,540.8z"/>
		</g>
		<path class="st1" d="M422.3,565.3c0,0.4-0.1,0.9-0.3,1.5c-0.3,0.7-0.5,1.1-0.9,1.1c-0.2,0-0.8-0.3-1.9-1c-1.2-0.7-1.8-1.2-1.8-1.4
			c0-0.3,0.4-1.4,1.2-3.2c0.5,0.5,1.3,1.1,2.4,1.7C422,564.5,422.3,564.9,422.3,565.3z"/>
		<path class="st1" d="M427.4,563.8c0,0.3-0.1,0.7-0.3,1.4c-0.3,0.8-0.6,1.4-0.9,1.7c-2.3-1.3-3.4-2-3.4-2.3c0-0.1,0.2-0.6,0.5-1.4
			c0.4-0.9,0.6-1.4,0.8-1.4C426.3,562.8,427.4,563.5,427.4,563.8z"/>
		<path class="st1" d="M426.3,568.9c0,0.3-0.1,0.7-0.3,1.4c-0.3,0.8-0.6,1.4-0.9,1.7c-2.3-1.3-3.4-2-3.4-2.3c0-0.1,0.2-0.6,0.5-1.4
			c0.4-0.9,0.6-1.4,0.8-1.4C425.2,567.9,426.3,568.6,426.3,568.9z"/>
	</g>
</g>
</svg>
